<svg xmlns="http://www.w3.org/2000/svg" width="380" height="31" viewBox="0 0 380 31" fill="none"><path d="M279.255 17.7512C278.706 17.7551 278.175 17.9345 277.745 18.2608C277.316 18.587 277.013 19.0412 276.885 19.5511C276.757 20.0609 276.812 20.597 277.04 21.0737C277.268 21.5505 277.657 21.9405 278.144 22.1816V24.9665H280.182V22.2693C280.708 22.0632 281.143 21.6891 281.413 21.2107C281.682 20.7324 281.77 20.1794 281.661 19.6462C281.551 19.113 281.251 18.6326 280.813 18.287C280.374 17.9414 279.823 17.752 279.255 17.7512Z" fill="white"></path><path d="M287.315 12.3079V8.14039C287.359 6.02924 286.525 3.98748 284.998 2.46189C283.47 0.936304 281.372 0.0511179 279.163 3.05176e-05C276.954 0.0511179 274.856 0.936304 273.328 2.46189C271.8 3.98748 270.967 6.02924 271.011 8.14039V12.3079H267.954V28.8613C267.954 29.3778 268.169 29.8731 268.551 30.2384C268.933 30.6036 269.451 30.8088 269.992 30.8088H288.334C288.874 30.8088 289.393 30.6036 289.775 30.2384C290.157 29.8731 290.372 29.3778 290.372 28.8613V12.3079H287.315ZM273.049 8.14039C273.005 6.54566 273.623 4.99913 274.769 3.83873C275.915 2.67833 277.494 1.99839 279.163 1.94748C280.832 1.99839 282.411 2.67833 283.557 3.83873C284.702 4.99913 285.321 6.54566 285.277 8.14039V12.3079H273.049V8.14039ZM269.992 28.8613V14.2554H288.334V28.8613H269.992Z" fill="white"></path><path d="M308.044 4.0768H304.373V12.9975H306.03V10.4233H308.044C310.389 10.4233 311.841 9.21259 311.841 7.25003C311.841 5.27473 310.389 4.0768 308.044 4.0768ZM307.967 9.02144H306.03V5.47863H307.967C309.42 5.47863 310.172 6.12857 310.172 7.25003C310.172 8.3715 309.42 9.02144 307.967 9.02144Z" fill="white"></path><path d="M314.797 7.18631V6.19229H313.281V12.9975H314.874V9.69686C314.874 8.30778 315.638 7.59412 316.849 7.59412C316.964 7.59412 317.078 7.60686 317.218 7.63235V6.11583C316.084 6.11583 315.256 6.47266 314.797 7.18631Z" fill="white"></path><path d="M319.373 5.07083C319.972 5.07083 320.392 4.63753 320.392 4.0768C320.392 3.5543 319.959 3.15924 319.373 3.15924C318.786 3.15924 318.353 3.57979 318.353 4.11503C318.353 4.65028 318.786 5.07083 319.373 5.07083ZM318.57 12.9975H320.163V6.19229H318.57V12.9975Z" fill="white"></path><path d="M327.096 6.19229L324.917 11.2389L322.802 6.19229H321.145L324.063 12.9975H325.707L328.626 6.19229H327.096Z" fill="white"></path><path d="M332.009 6.11583C330.913 6.11583 329.856 6.39619 329.129 6.95692L329.754 8.11662C330.263 7.69607 331.054 7.44119 331.818 7.44119C332.952 7.44119 333.513 7.98918 333.513 8.91949V9.02144H331.754C329.69 9.02144 328.925 9.91351 328.925 11.0477C328.925 12.2329 329.907 13.0867 331.461 13.0867C332.481 13.0867 333.22 12.7554 333.602 12.1692V12.9975H335.106V9.00869C335.106 7.04613 333.972 6.11583 332.009 6.11583ZM331.793 11.927C330.977 11.927 330.493 11.5575 330.493 10.984C330.493 10.487 330.786 10.0792 331.869 10.0792H333.513V10.8693C333.246 11.5702 332.57 11.927 331.793 11.927Z" fill="white"></path><path d="M340.335 13.0867C341.66 13.0867 342.718 12.5133 343.241 11.4938L342.017 10.7801C341.609 11.43 340.998 11.7231 340.322 11.7231C339.15 11.7231 338.258 10.9203 338.258 9.59491C338.258 8.28229 339.15 7.46668 340.322 7.46668C340.998 7.46668 341.609 7.75979 342.017 8.40973L343.241 7.69607C342.718 6.66381 341.66 6.11583 340.335 6.11583C338.181 6.11583 336.652 7.55589 336.652 9.59491C336.652 11.6339 338.181 13.0867 340.335 13.0867Z" fill="white"></path><path d="M345.421 5.07083C346.019 5.07083 346.44 4.63753 346.44 4.0768C346.44 3.5543 346.007 3.15924 345.421 3.15924C344.834 3.15924 344.401 3.57979 344.401 4.11503C344.401 4.65028 344.834 5.07083 345.421 5.07083ZM344.618 12.9975H346.211V6.19229H344.618V12.9975Z" fill="white"></path><path d="M353.374 3.54156V7.03339C352.838 6.40894 352.061 6.11583 351.182 6.11583C349.206 6.11583 347.741 7.47942 347.741 9.59491C347.741 11.7104 349.206 13.0867 351.182 13.0867C352.112 13.0867 352.902 12.7681 353.437 12.1182V12.9975H354.966V3.54156H353.374ZM351.373 11.7231C350.226 11.7231 349.346 10.8948 349.346 9.59491C349.346 8.29503 350.226 7.46668 351.373 7.46668C352.52 7.46668 353.399 8.29503 353.399 9.59491C353.399 10.8948 352.52 11.7231 351.373 11.7231Z" fill="white"></path><path d="M359.65 6.11583C358.554 6.11583 357.496 6.39619 356.77 6.95692L357.395 8.11662C357.904 7.69607 358.694 7.44119 359.459 7.44119C360.593 7.44119 361.154 7.98918 361.154 8.91949V9.02144H359.395C357.331 9.02144 356.566 9.91351 356.566 11.0477C356.566 12.2329 357.547 13.0867 359.102 13.0867C360.122 13.0867 360.861 12.7554 361.243 12.1692V12.9975H362.747V9.00869C362.747 7.04613 361.613 6.11583 359.65 6.11583ZM359.434 11.927C358.618 11.927 358.134 11.5575 358.134 10.984C358.134 10.487 358.427 10.0792 359.51 10.0792H361.154V10.8693C360.886 11.5702 360.211 11.927 359.434 11.927Z" fill="white"></path><path d="M369.926 3.54156V7.03339C369.39 6.40894 368.613 6.11583 367.734 6.11583C365.758 6.11583 364.293 7.47942 364.293 9.59491C364.293 11.7104 365.758 13.0867 367.734 13.0867C368.664 13.0867 369.454 12.7681 369.989 12.1182V12.9975H371.519V3.54156H369.926ZM367.925 11.7231C366.778 11.7231 365.899 10.8948 365.899 9.59491C365.899 8.29503 366.778 7.46668 367.925 7.46668C369.072 7.46668 369.951 8.29503 369.951 9.59491C369.951 10.8948 369.072 11.7231 367.925 11.7231Z" fill="white"></path><path d="M380 9.63314C380 7.50491 378.547 6.11583 376.559 6.11583C374.533 6.11583 373.042 7.56863 373.042 9.59491C373.042 11.6212 374.52 13.0867 376.801 13.0867C377.974 13.0867 378.93 12.7044 379.541 11.978L378.687 10.9967C378.203 11.4938 377.604 11.7359 376.84 11.7359C375.654 11.7359 374.826 11.0987 374.635 10.1047H379.975C379.987 9.95174 380 9.76058 380 9.63314ZM376.559 7.39022C377.604 7.39022 378.356 8.06564 378.483 9.04693H374.622C374.775 8.0529 375.527 7.39022 376.559 7.39022Z" fill="white"></path><path d="M308.044 16.1672H304.373V25.0879H306.03V22.5136H308.044C310.389 22.5136 311.841 21.303 311.841 19.3404C311.841 17.3651 310.389 16.1672 308.044 16.1672ZM307.967 21.1118H306.03V17.569H307.967C309.42 17.569 310.172 18.2189 310.172 19.3404C310.172 20.4619 309.42 21.1118 307.967 21.1118Z" fill="white"></path><path d="M314.797 19.2767V18.2827H313.281V25.0879H314.874V21.7872C314.874 20.3981 315.638 19.6845 316.849 19.6845C316.964 19.6845 317.078 19.6972 317.218 19.7227V18.2062C316.084 18.2062 315.256 18.563 314.797 19.2767Z" fill="white"></path><path d="M321.566 25.1771C323.682 25.1771 325.198 23.7243 325.198 21.6853C325.198 19.6463 323.682 18.2062 321.566 18.2062C319.476 18.2062 317.947 19.6463 317.947 21.6853C317.947 23.7243 319.476 25.1771 321.566 25.1771ZM321.566 23.8135C320.419 23.8135 319.553 22.9852 319.553 21.6853C319.553 20.3854 320.419 19.5571 321.566 19.5571C322.726 19.5571 323.592 20.3854 323.592 21.6853C323.592 22.9852 322.726 23.8135 321.566 23.8135Z" fill="white"></path><path d="M330.366 23.5841C330.124 23.7753 329.805 23.8645 329.474 23.8645C328.862 23.8645 328.531 23.5077 328.531 22.845V19.608H330.353V18.3336H328.531V16.7789H326.938V18.3336H325.817V19.608H326.938V22.8832C326.938 24.387 327.792 25.1771 329.283 25.1771C329.856 25.1771 330.43 25.0242 330.812 24.7183L330.366 23.5841Z" fill="white"></path><path d="M338.296 21.7235C338.296 19.5953 336.843 18.2062 334.855 18.2062C332.829 18.2062 331.338 19.659 331.338 21.6853C331.338 23.7116 332.816 25.1771 335.097 25.1771C336.27 25.1771 337.226 24.7948 337.837 24.0684L336.983 23.0871C336.499 23.5841 335.9 23.8263 335.136 23.8263C333.95 23.8263 333.122 23.1891 332.931 22.195H338.271C338.283 22.0421 338.296 21.851 338.296 21.7235ZM334.855 19.4806C335.9 19.4806 336.652 20.156 336.78 21.1373H332.918C333.071 20.1433 333.823 19.4806 334.855 19.4806Z" fill="white"></path><path d="M345.064 18.2827V19.1875C344.503 18.512 343.662 18.2062 342.706 18.2062C340.757 18.2062 339.266 19.5061 339.266 21.4814C339.266 23.4567 340.757 24.7821 342.706 24.7821C343.624 24.7821 344.427 24.4889 344.988 23.8772V24.2341C344.988 25.6104 344.325 26.2986 342.821 26.2986C341.878 26.2986 340.909 25.98 340.311 25.483L339.597 26.6809C340.374 27.3181 341.636 27.6494 342.91 27.6494C345.293 27.6494 346.581 26.528 346.581 24.0556V18.2827H345.064ZM342.949 23.4312C341.738 23.4312 340.871 22.6411 340.871 21.4814C340.871 20.3344 341.738 19.5571 342.949 19.5571C344.146 19.5571 345.013 20.3344 345.013 21.4814C345.013 22.6411 344.146 23.4312 342.949 23.4312Z" fill="white"></path><path d="M349.478 17.1612C350.077 17.1612 350.497 16.7279 350.497 16.1672C350.497 15.6447 350.064 15.2496 349.478 15.2496C348.891 15.2496 348.458 15.6702 348.458 16.2054C348.458 16.7406 348.891 17.1612 349.478 17.1612ZM348.675 25.0879H350.268V18.2827H348.675V25.0879Z" fill="white"></path><path d="M357.431 15.6319V19.1238C356.895 18.4993 356.118 18.2062 355.239 18.2062C353.263 18.2062 351.798 19.5698 351.798 21.6853C351.798 23.8008 353.263 25.1771 355.239 25.1771C356.169 25.1771 356.959 24.8585 357.494 24.2086V25.0879H359.024V15.6319H357.431ZM355.43 23.8135C354.283 23.8135 353.404 22.9852 353.404 21.6853C353.404 20.3854 354.283 19.5571 355.43 19.5571C356.577 19.5571 357.456 20.3854 357.456 21.6853C357.456 22.9852 356.577 23.8135 355.43 23.8135Z" fill="white"></path><path d="M363.707 18.2062C362.611 18.2062 361.554 18.4866 360.827 19.0473L361.452 20.207C361.961 19.7864 362.752 19.5316 363.516 19.5316C364.65 19.5316 365.211 20.0795 365.211 21.0099V21.1118H363.452C361.388 21.1118 360.623 22.0039 360.623 23.1381C360.623 24.3233 361.605 25.1771 363.159 25.1771C364.179 25.1771 364.918 24.8458 365.3 24.2596V25.0879H366.804V21.0991C366.804 19.1365 365.67 18.2062 363.707 18.2062ZM363.491 24.0174C362.675 24.0174 362.191 23.6478 362.191 23.0744C362.191 22.5774 362.484 22.1696 363.567 22.1696H365.211V22.9597C364.943 23.6606 364.268 24.0174 363.491 24.0174Z" fill="white"></path><path d="M14.2958 0L0.622131 4.3554V17.4216C0.622131 24.6386 6.74322 30.4878 14.2958 30.4878C21.8483 30.4878 27.9694 24.6386 27.9694 17.4216V4.3554L14.2958 0ZM25.4056 17.4216C25.4056 23.2844 20.4311 28.0379 14.2958 28.0379C8.16043 28.0379 3.18594 23.2844 3.18594 17.4216V6.19283L14.2958 2.44991L25.4056 6.19283V17.4216Z" fill="white"></path><path d="M9.53859 13.988C9.41977 13.874 9.27855 13.7835 9.12303 13.7217C8.96752 13.66 8.80076 13.6282 8.63235 13.6282C8.46394 13.6282 8.29719 13.66 8.14167 13.7217C7.98615 13.7835 7.84493 13.874 7.72612 13.988C7.60676 14.1016 7.51205 14.2365 7.44743 14.3851C7.3828 14.5337 7.34953 14.6931 7.34953 14.854C7.34953 15.015 7.3828 15.1743 7.44743 15.3229C7.51205 15.4715 7.60676 15.6065 7.72612 15.72L12.3338 20.123L12.4086 20.1945C12.521 20.3021 12.6545 20.3874 12.8014 20.4457C12.9484 20.5039 13.1059 20.5339 13.265 20.5339C13.4241 20.5339 13.5816 20.5039 13.7286 20.4457C13.8755 20.3874 14.009 20.3021 14.1214 20.1945L22.0799 12.5896C22.1925 12.4822 22.2818 12.3546 22.3427 12.2142C22.4037 12.0738 22.4351 11.9232 22.4351 11.7712C22.4351 11.6192 22.4037 11.4687 22.3427 11.3282C22.2818 11.1878 22.1925 11.0603 22.0799 10.9529L21.9802 10.8576C21.8678 10.75 21.7343 10.6646 21.5873 10.6064C21.4404 10.5482 21.2829 10.5182 21.1238 10.5182C20.9647 10.5182 20.8072 10.5482 20.6602 10.6064C20.5133 10.6646 20.3798 10.75 20.2674 10.8576L13.2632 17.5472L9.53859 13.988Z" fill="white"></path><path d="M45.2046 12.5695C46.6702 12.5695 47.9191 12.047 48.7474 11.0785L47.6769 10.059C47.027 10.7726 46.2241 11.1167 45.2938 11.1167C43.446 11.1167 42.1078 9.81685 42.1078 7.98173C42.1078 6.1466 43.446 4.84673 45.2938 4.84673C46.2241 4.84673 47.027 5.19081 47.6769 5.89173L48.7474 4.88496C47.9191 3.91642 46.6702 3.39392 45.2174 3.39392C42.4774 3.39392 40.4384 5.31825 40.4384 7.98173C40.4384 10.6452 42.4774 12.5695 45.2046 12.5695Z" fill="white"></path><path d="M52.9915 12.5313C55.107 12.5313 56.6236 11.0785 56.6236 9.03947C56.6236 7.00045 55.107 5.56038 52.9915 5.56038C50.9015 5.56038 49.3723 7.00045 49.3723 9.03947C49.3723 11.0785 50.9015 12.5313 52.9915 12.5313ZM52.9915 11.1677C51.8446 11.1677 50.978 10.3393 50.978 9.03947C50.978 7.73959 51.8446 6.91124 52.9915 6.91124C54.1512 6.91124 55.0178 7.73959 55.0178 9.03947C55.0178 10.3393 54.1512 11.1677 52.9915 11.1677Z" fill="white"></path><path d="M66.7362 5.56038C65.653 5.56038 64.7354 5.99368 64.1875 6.69459C63.7159 5.92996 62.8876 5.56038 61.8936 5.56038C60.9632 5.56038 60.1731 5.89173 59.6634 6.50343V5.63685H58.1468V12.4421H59.7398V8.9885C59.7398 7.63764 60.4535 6.94947 61.5112 6.94947C62.4798 6.94947 63.0405 7.53569 63.0405 8.74636V12.4421H64.6335V8.9885C64.6335 7.63764 65.3599 6.94947 66.4049 6.94947C67.3734 6.94947 67.9342 7.53569 67.9342 8.74636V12.4421H69.5272V8.54246C69.5272 6.49069 68.3802 5.56038 66.7362 5.56038Z" fill="white"></path><path d="M75.335 5.56038C74.4047 5.56038 73.6146 5.87898 73.0793 6.52892V5.63685H71.5628V14.9144H73.1558V11.6137C73.7038 12.2382 74.4684 12.5313 75.335 12.5313C77.323 12.5313 78.7886 11.155 78.7886 9.03947C78.7886 6.93673 77.323 5.56038 75.335 5.56038ZM75.1566 11.1677C74.0096 11.1677 73.1303 10.3393 73.1303 9.03947C73.1303 7.73959 74.0096 6.91124 75.1566 6.91124C76.3035 6.91124 77.1701 7.73959 77.1701 9.03947C77.1701 10.3393 76.3035 11.1677 75.1566 11.1677Z" fill="white"></path><path d="M81.8159 6.63087V5.63685H80.2993V12.4421H81.8923V9.14142C81.8923 7.75234 82.657 7.03868 83.8676 7.03868C83.9823 7.03868 84.097 7.05142 84.2372 7.07691V5.56038C83.103 5.56038 82.2746 5.91721 81.8159 6.63087Z" fill="white"></path><path d="M88.151 5.56038C87.055 5.56038 85.9973 5.84075 85.2709 6.40148L85.8953 7.56118C86.4051 7.14063 87.1952 6.88575 87.9598 6.88575C89.094 6.88575 89.6548 7.43374 89.6548 8.36404V8.46599H87.8961C85.8316 8.46599 85.0669 9.35807 85.0669 10.4923C85.0669 11.6775 86.0482 12.5313 87.603 12.5313C88.6225 12.5313 89.3616 12.2 89.744 11.6137V12.4421H91.2477V8.45325C91.2477 6.49069 90.1135 5.56038 88.151 5.56038ZM87.9343 11.3716C87.1187 11.3716 86.6345 11.002 86.6345 10.4286C86.6345 9.93154 86.9276 9.52374 88.0108 9.52374H89.6548V10.3139C89.3871 11.0148 88.7117 11.3716 87.9343 11.3716Z" fill="white"></path><path d="M43.841 24.6599C46.2878 24.6599 47.4475 23.4365 47.4475 22.0092C47.4475 18.734 42.1588 19.9701 42.1588 18.0713C42.1588 17.3959 42.7196 16.8606 44.0959 16.8606C44.8733 16.8606 45.7526 17.09 46.5555 17.5615L47.078 16.2744C46.3006 15.7647 45.1791 15.4843 44.1086 15.4843C41.6618 15.4843 40.5149 16.7077 40.5149 18.1478C40.5149 21.4612 45.8163 20.1995 45.8163 22.1239C45.8163 22.7865 45.2301 23.2836 43.841 23.2836C42.745 23.2836 41.6108 22.8758 40.8972 22.3023L40.3237 23.5894C41.0628 24.2266 42.4519 24.6599 43.841 24.6599Z" fill="white"></path><path d="M55.3348 21.1681C55.3348 19.0398 53.882 17.6508 51.894 17.6508C49.8677 17.6508 48.3767 19.1036 48.3767 21.1298C48.3767 23.1561 49.8549 24.6217 52.1361 24.6217C53.3085 24.6217 54.2643 24.2394 54.876 23.513L54.0222 22.5317C53.5379 23.0287 52.939 23.2708 52.1743 23.2708C50.9892 23.2708 50.1608 22.6336 49.9696 21.6396H55.3093C55.3221 21.4867 55.3348 21.2955 55.3348 21.1681ZM51.894 18.9251C52.939 18.9251 53.6909 19.6006 53.8183 20.5819H49.9569C50.1098 19.5878 50.8617 18.9251 51.894 18.9251Z" fill="white"></path><path d="M62.1027 17.7272V18.632C61.542 17.9566 60.7009 17.6508 59.7451 17.6508C57.7953 17.6508 56.3043 18.9506 56.3043 20.9259C56.3043 22.9012 57.7953 24.2266 59.7451 24.2266C60.6627 24.2266 61.4655 23.9335 62.0263 23.3218V23.6786C62.0263 25.055 61.3636 25.7431 59.8598 25.7431C58.9168 25.7431 57.9482 25.4245 57.3493 24.9275L56.6356 26.1255C57.413 26.7626 58.6746 27.094 59.949 27.094C62.3321 27.094 63.6193 25.9725 63.6193 23.5002V17.7272H62.1027ZM59.9872 22.8758C58.7766 22.8758 57.91 22.0856 57.91 20.9259C57.91 19.779 58.7766 19.0016 59.9872 19.0016C61.1852 19.0016 62.0518 19.779 62.0518 20.9259C62.0518 22.0856 61.1852 22.8758 59.9872 22.8758Z" fill="white"></path><path d="M70.7092 17.7272V21.1681C70.7092 22.5317 69.9573 23.2198 68.8485 23.2198C67.8418 23.2198 67.2556 22.6336 67.2556 21.3975V17.7272H65.6626V21.6141C65.6626 23.6659 66.8477 24.6217 68.5937 24.6217C69.473 24.6217 70.2759 24.2903 70.7856 23.6659V24.5325H72.3021V17.7272H70.7092Z" fill="white"></path><path d="M75.9044 18.7212V17.7272H74.3879V24.5325H75.9808V21.2318C75.9808 19.8427 76.7455 19.129 77.9562 19.129C78.0708 19.129 78.1855 19.1418 78.3257 19.1673V17.6508C77.1915 17.6508 76.3632 18.0076 75.9044 18.7212Z" fill="white"></path><path d="M82.2395 17.6508C81.1435 17.6508 80.0858 17.9311 79.3594 18.4919L79.9838 19.6515C80.4936 19.231 81.2837 18.9761 82.0483 18.9761C83.1826 18.9761 83.7433 19.5241 83.7433 20.4544V20.5564H81.9846C79.9201 20.5564 79.1555 21.4484 79.1555 22.5826C79.1555 23.7678 80.1368 24.6217 81.6915 24.6217C82.711 24.6217 83.4502 24.2903 83.8325 23.7041V24.5325H85.3363V20.5436C85.3363 18.5811 84.2021 17.6508 82.2395 17.6508ZM82.0229 23.462C81.2072 23.462 80.723 23.0924 80.723 22.5189C80.723 22.0219 81.0161 21.6141 82.0993 21.6141H83.7433V22.4042C83.4757 23.1051 82.8002 23.462 82.0229 23.462Z" fill="white"></path><path fill-rule="evenodd" clip-rule="evenodd" d="M130.695 13.4057C128.895 13.1588 127.249 12.3001 126.058 10.9873C124.868 9.67439 124.212 7.99534 124.212 6.25805V5.29528C124.212 3.4352 125.792 1.92558 127.739 1.92558H130.471C130.93 0.799132 132.075 3.05176e-05 133.417 3.05176e-05H147.248C147.885 0.000369267 148.507 0.184344 149.033 0.527894C149.558 0.871443 149.963 1.35857 150.194 1.92558H152.927C154.873 1.92558 156.453 3.4352 156.453 5.29528V6.25805C156.453 7.99534 155.798 9.67439 154.607 10.9873C153.417 12.3001 151.77 13.1588 149.971 13.4057C149.545 14.7304 148.826 15.9521 147.863 16.9877C146.9 18.0234 145.714 18.8487 144.387 19.4076L144.677 22.1919C144.687 22.2882 144.738 22.423 144.907 22.5848C145.08 22.7523 145.344 22.9121 145.659 23.0219C146.229 23.2202 146.904 23.5494 147.452 24.1156C148.026 24.7125 148.393 25.5077 148.393 26.4763V27.9204H150.912C151.313 27.9204 151.697 28.0726 151.98 28.3434C152.264 28.6143 152.423 28.9816 152.423 29.3646C152.423 29.7476 152.264 30.1149 151.98 30.3858C151.697 30.6566 151.313 30.8088 150.912 30.8088H129.754C129.353 30.8088 128.968 30.6566 128.685 30.3858C128.402 30.1149 128.242 29.7476 128.242 29.3646C128.242 28.9816 128.402 28.6143 128.685 28.3434C128.968 28.0726 129.353 27.9204 129.754 27.9204H132.273V26.4763C132.273 25.5077 132.639 24.7125 133.216 24.1156C133.76 23.5494 134.437 23.2202 135.007 23.0219C135.287 22.9292 135.544 22.7801 135.759 22.5848C135.928 22.4211 135.978 22.2901 135.988 22.1919L136.278 19.4076C134.952 18.8485 133.767 18.023 132.804 16.9874C131.841 15.9518 131.122 14.7302 130.697 13.4057H130.695ZM130.257 4.81389H127.739C127.605 4.81389 127.477 4.86461 127.382 4.95489C127.288 5.04517 127.235 5.16761 127.235 5.29528V6.25805C127.235 8.14509 128.496 9.74907 130.257 10.3441V4.81389ZM139.239 20.1605L138.997 22.4788C138.809 24.26 137.268 25.3094 136.041 25.7349C135.815 25.802 135.608 25.918 135.436 26.0738C135.362 26.1509 135.295 26.2529 135.295 26.4782V27.9224H145.37V26.4782C145.37 26.2529 145.304 26.1509 145.229 26.0738C145.058 25.9179 144.851 25.8019 144.625 25.7349C143.398 25.3094 141.856 24.26 141.671 22.4808L141.429 20.1624C140.701 20.2377 139.967 20.2377 139.239 20.1624V20.1605ZM150.408 10.346V4.81389H152.927C153.061 4.81389 153.189 4.86461 153.283 4.95489C153.378 5.04517 153.431 5.16761 153.431 5.29528V6.25805C153.431 7.15421 153.14 8.0284 152.599 8.76018C152.058 9.49197 151.292 10.0453 150.408 10.3441V10.346ZM133.28 3.01929C133.28 2.94804 133.341 2.88835 133.417 2.88835H147.248C147.323 2.88835 147.385 2.94611 147.385 3.01929V10.5905C147.385 12.3779 146.642 14.0921 145.32 15.356C143.997 16.6199 142.203 17.3299 140.333 17.3299C138.462 17.3299 136.668 16.6199 135.346 15.356C134.023 14.0921 133.28 12.3779 133.28 10.5905V3.01929Z" fill="white"></path><path d="M140.333 4.62122L141.419 7.81446H144.932L142.09 9.788L143.175 12.9812L140.333 11.0077L137.49 12.9812L138.576 9.788L135.733 7.81446H139.247L140.333 4.62122Z" fill="white"></path><path d="M172.507 14.9043C174.954 14.9043 176.114 13.6809 176.114 12.2535C176.114 8.97836 170.825 10.2145 170.825 8.31567C170.825 7.64025 171.386 7.105 172.762 7.105C173.54 7.105 174.419 7.33439 175.222 7.80592L175.744 6.51878C174.967 6.00903 173.845 5.72866 172.775 5.72866C170.328 5.72866 169.181 6.95207 169.181 8.39214C169.181 11.7056 174.483 10.4439 174.483 12.3682C174.483 13.0309 173.896 13.5279 172.507 13.5279C171.411 13.5279 170.277 13.1201 169.563 12.5466L168.99 13.8338C169.729 14.471 171.118 14.9043 172.507 14.9043Z" fill="white"></path><path d="M180.203 7.89512C179.107 7.89512 178.05 8.17549 177.323 8.73622L177.948 9.89592C178.457 9.47537 179.248 9.22049 180.012 9.22049C181.146 9.22049 181.707 9.76848 181.707 10.6988V10.8007H179.949C177.884 10.8007 177.119 11.6928 177.119 12.827C177.119 14.0122 178.101 14.866 179.655 14.866C180.675 14.866 181.414 14.5347 181.796 13.9485V14.7768H183.3V10.788C183.3 8.82543 182.166 7.89512 180.203 7.89512ZM179.987 13.7063C179.171 13.7063 178.687 13.3368 178.687 12.7633C178.687 12.2663 178.98 11.8585 180.063 11.8585H181.707V12.6486C181.44 13.3495 180.764 13.7063 179.987 13.7063Z" fill="white"></path><path d="M188.989 13.2731C188.747 13.4642 188.429 13.5534 188.097 13.5534C187.486 13.5534 187.154 13.1966 187.154 12.5339V9.29695H188.977V8.02256H187.154V6.46781H185.561V8.02256H184.44V9.29695H185.561V12.5721C185.561 14.0759 186.415 14.866 187.906 14.866C188.48 14.866 189.053 14.7131 189.435 14.4073L188.989 13.2731Z" fill="white"></path><path d="M191.549 6.85012C192.148 6.85012 192.568 6.41683 192.568 5.8561C192.568 5.3336 192.135 4.93854 191.549 4.93854C190.962 4.93854 190.529 5.35909 190.529 5.89433C190.529 6.42957 190.962 6.85012 191.549 6.85012ZM190.746 14.7768H192.339V7.97159H190.746V14.7768Z" fill="white"></path><path d="M196.532 14.866C198.444 14.866 199.616 14.0377 199.616 12.7633C199.616 10.0998 195.411 11.3232 195.411 9.94689C195.411 9.50085 195.87 9.18226 196.838 9.18226C197.488 9.18226 198.138 9.3097 198.788 9.69201L199.4 8.48134C198.788 8.11177 197.756 7.89512 196.851 7.89512C195.016 7.89512 193.856 8.73622 193.856 10.0234C193.856 12.7378 198.062 11.5144 198.062 12.8143C198.062 13.2858 197.641 13.5662 196.634 13.5662C195.78 13.5662 194.863 13.2858 194.264 12.8907L193.652 14.1014C194.264 14.5347 195.398 14.866 196.532 14.866Z" fill="white"></path><path d="M203.754 6.51878C204.085 6.51878 204.391 6.63348 204.633 6.79915L205.079 5.60122C204.722 5.34634 204.187 5.23165 203.639 5.23165C202.059 5.23165 201.205 6.16195 201.205 7.58927V8.02256H200.083V9.29695H201.205V14.7768H202.798V9.29695H204.62V8.02256H202.747V7.61476C202.747 6.88835 203.091 6.51878 203.754 6.51878Z" fill="white"></path><path d="M208.168 7.89512C207.072 7.89512 206.014 8.17549 205.288 8.73622L205.912 9.89592C206.422 9.47537 207.212 9.22049 207.977 9.22049C209.111 9.22049 209.672 9.76848 209.672 10.6988V10.8007H207.913C205.848 10.8007 205.084 11.6928 205.084 12.827C205.084 14.0122 206.065 14.866 207.62 14.866C208.639 14.866 209.378 14.5347 209.761 13.9485V14.7768H211.265V10.788C211.265 8.82543 210.13 7.89512 208.168 7.89512ZM207.951 13.7063C207.136 13.7063 206.651 13.3368 206.651 12.7633C206.651 12.2663 206.944 11.8585 208.028 11.8585H209.672V12.6486C209.404 13.3495 208.729 13.7063 207.951 13.7063Z" fill="white"></path><path d="M216.481 13.5024C215.308 13.5024 214.416 12.6996 214.416 11.3742C214.416 10.0616 215.308 9.24598 216.481 9.24598C217.156 9.24598 217.768 9.53909 218.176 10.189L219.399 9.47537C218.877 8.44311 217.819 7.89512 216.493 7.89512C214.34 7.89512 212.81 9.33518 212.81 11.3742C212.81 13.1711 213.996 14.5092 215.742 14.8023L215.423 15.9875H215.818C216.302 15.9875 216.493 16.1659 216.493 16.4081C216.493 16.6884 216.29 16.8668 215.818 16.8668C215.499 16.8668 215.219 16.8031 214.951 16.6629L214.658 17.4148C214.977 17.5932 215.372 17.6824 215.831 17.6824C216.876 17.6824 217.564 17.2109 217.564 16.4718C217.564 15.9238 217.207 15.4905 216.455 15.4013L216.595 14.866C217.87 14.8406 218.889 14.2671 219.399 13.2731L218.176 12.5594C217.768 13.2093 217.156 13.5024 216.481 13.5024Z" fill="white"></path><path d="M222.7 6.20018C223.159 6.20018 223.593 7.04128 224.434 7.04128C225.249 7.04128 225.784 6.36585 225.81 5.37183H224.956C224.931 5.83061 224.688 6.09823 224.332 6.09823C223.873 6.09823 223.44 5.25713 222.598 5.25713C221.783 5.25713 221.248 5.91982 221.222 6.96482H222.076C222.101 6.48055 222.344 6.20018 222.7 6.20018ZM223.376 7.89512C222.28 7.89512 221.222 8.17549 220.496 8.73622L221.12 9.89592C221.63 9.47537 222.42 9.22049 223.185 9.22049C224.319 9.22049 224.88 9.76848 224.88 10.6988V10.8007H223.121C221.056 10.8007 220.292 11.6928 220.292 12.827C220.292 14.0122 221.273 14.866 222.828 14.866C223.847 14.866 224.587 14.5347 224.969 13.9485V14.7768H226.473V10.788C226.473 8.82543 225.338 7.89512 223.376 7.89512ZM223.159 13.7063C222.344 13.7063 221.859 13.3368 221.859 12.7633C221.859 12.2663 222.152 11.8585 223.236 11.8585H224.88V12.6486C224.612 13.3495 223.937 13.7063 223.159 13.7063Z" fill="white"></path><path d="M231.638 14.866C233.753 14.866 235.27 13.4132 235.27 11.3742C235.27 9.33518 233.753 7.89512 231.638 7.89512C229.548 7.89512 228.019 9.33518 228.019 11.3742C228.019 13.4132 229.548 14.866 231.638 14.866ZM231.638 13.5024C230.491 13.5024 229.624 12.6741 229.624 11.3742C229.624 10.0743 230.491 9.24598 231.638 9.24598C232.798 9.24598 233.664 10.0743 233.664 11.3742C233.664 12.6741 232.798 13.5024 231.638 13.5024Z" fill="white"></path><path d="M175.833 25.0831C175.26 25.4144 174.636 25.5418 173.998 25.5418C172.112 25.5418 170.774 24.2165 170.774 22.4068C170.774 20.559 172.112 19.2718 174.011 19.2718C174.967 19.2718 175.77 19.5904 176.471 20.2913L177.516 19.2718C176.675 18.316 175.426 17.819 173.935 17.819C171.144 17.819 169.105 19.7434 169.105 22.4068C169.105 25.0703 171.144 26.9946 173.909 26.9946C175.171 26.9946 176.471 26.6123 177.401 25.8604V22.3049H175.833V25.0831Z" fill="white"></path><path d="M182.033 19.9855C180.937 19.9855 179.879 20.2659 179.153 20.8266L179.777 21.9863C180.287 21.5657 181.077 21.3109 181.842 21.3109C182.976 21.3109 183.537 21.8588 183.537 22.7892V22.8911H181.778C179.713 22.8911 178.949 23.7832 178.949 24.9174C178.949 26.1026 179.93 26.9564 181.485 26.9564C182.504 26.9564 183.244 26.6251 183.626 26.0388V26.8672H185.13V22.8784C185.13 20.9158 183.995 19.9855 182.033 19.9855ZM181.816 25.7967C181.001 25.7967 180.516 25.4271 180.516 24.8537C180.516 24.3567 180.809 23.9488 181.893 23.9488H183.537V24.739C183.269 25.4399 182.594 25.7967 181.816 25.7967Z" fill="white"></path><path d="M188.691 21.056V20.062H187.174V26.8672H188.767V23.5665C188.767 22.1774 189.532 21.4638 190.742 21.4638C190.857 21.4638 190.972 21.4765 191.112 21.502V19.9855C189.978 19.9855 189.149 20.3423 188.691 21.056Z" fill="white"></path><path d="M195.026 19.9855C193.93 19.9855 192.872 20.2659 192.146 20.8266L192.77 21.9863C193.28 21.5657 194.07 21.3109 194.835 21.3109C195.969 21.3109 196.529 21.8588 196.529 22.7892V22.8911H194.771C192.706 22.8911 191.942 23.7832 191.942 24.9174C191.942 26.1026 192.923 26.9564 194.478 26.9564C195.497 26.9564 196.236 26.6251 196.619 26.0388V26.8672H198.122V22.8784C198.122 20.9158 196.988 19.9855 195.026 19.9855ZM194.809 25.7967C193.993 25.7967 193.509 25.4271 193.509 24.8537C193.509 24.3567 193.802 23.9488 194.885 23.9488H196.529V24.739C196.262 25.4399 195.586 25.7967 194.809 25.7967Z" fill="white"></path><path d="M204.028 19.9855C203.034 19.9855 202.206 20.3168 201.683 20.9413V20.062H200.167V26.8672H201.76V23.4263C201.76 22.0627 202.524 21.3746 203.659 21.3746C204.678 21.3746 205.277 21.9608 205.277 23.1715V26.8672H206.87V22.9676C206.87 20.9158 205.659 19.9855 204.028 19.9855Z" fill="white"></path><path d="M212.536 25.3634C212.294 25.5546 211.975 25.6438 211.644 25.6438C211.032 25.6438 210.701 25.287 210.701 24.6243V21.3873H212.523V20.1129H210.701V18.5582H209.108V20.1129H207.986V21.3873H209.108V24.6625C209.108 26.1663 209.961 26.9564 211.452 26.9564C212.026 26.9564 212.599 26.8035 212.982 26.4976L212.536 25.3634Z" fill="white"></path><path d="M215.095 18.9405C215.694 18.9405 216.115 18.5072 216.115 17.9465C216.115 17.424 215.681 17.0289 215.095 17.0289C214.509 17.0289 214.076 17.4495 214.076 17.9847C214.076 18.5199 214.509 18.9405 215.095 18.9405ZM214.292 26.8672H215.885V20.062H214.292V26.8672Z" fill="white"></path><path d="M223.048 17.4112V20.9031C222.513 20.2786 221.735 19.9855 220.856 19.9855C218.881 19.9855 217.415 21.3491 217.415 23.4646C217.415 25.5801 218.881 26.9564 220.856 26.9564C221.786 26.9564 222.576 26.6378 223.112 25.9879V26.8672H224.641V17.4112H223.048ZM221.047 25.5928C219.9 25.5928 219.021 24.7645 219.021 23.4646C219.021 22.1647 219.9 21.3363 221.047 21.3363C222.194 21.3363 223.074 22.1647 223.074 23.4646C223.074 24.7645 222.194 25.5928 221.047 25.5928Z" fill="white"></path><path d="M229.325 19.9855C228.229 19.9855 227.171 20.2659 226.445 20.8266L227.069 21.9863C227.579 21.5657 228.369 21.3109 229.134 21.3109C230.268 21.3109 230.828 21.8588 230.828 22.7892V22.8911H229.07C227.005 22.8911 226.241 23.7832 226.241 24.9174C226.241 26.1026 227.222 26.9564 228.777 26.9564C229.796 26.9564 230.535 26.6251 230.918 26.0388V26.8672H232.421V22.8784C232.421 20.9158 231.287 19.9855 229.325 19.9855ZM229.108 25.7967C228.292 25.7967 227.808 25.4271 227.808 24.8537C227.808 24.3567 228.101 23.9488 229.185 23.9488H230.828V24.739C230.561 25.4399 229.885 25.7967 229.108 25.7967Z" fill="white"></path></svg>