<svg xmlns="http://www.w3.org/2000/svg" width="380" height="31" viewBox="0 0 380 31" fill="none"><path d="M278.633 17.7511C278.084 17.7551 277.552 17.9345 277.123 18.2607C276.693 18.5869 276.391 19.0412 276.263 19.551C276.135 20.0608 276.19 20.5969 276.418 21.0737C276.646 21.5504 277.035 21.9405 277.522 22.1816V24.9664H279.56V22.2692C280.086 22.0632 280.521 21.689 280.791 21.2107C281.06 20.7323 281.148 20.1793 281.038 19.6461C280.929 19.113 280.629 18.6326 280.191 18.287C279.752 17.9414 279.201 17.752 278.633 17.7511V17.7511Z" fill="#0D061C"></path><path d="M286.693 12.3079V8.14036C286.736 6.02921 285.903 3.98745 284.376 2.46186C282.848 0.936274 280.75 0.0510874 278.541 0C276.332 0.0510874 274.234 0.936274 272.706 2.46186C271.178 3.98745 270.345 6.02921 270.389 8.14036V12.3079H267.332V28.8613C267.332 29.3778 267.547 29.8731 267.929 30.2383C268.311 30.6035 268.829 30.8087 269.37 30.8087H287.712C288.252 30.8087 288.771 30.6035 289.153 30.2383C289.535 29.8731 289.75 29.3778 289.75 28.8613V12.3079H286.693ZM272.427 8.14036C272.383 6.54563 273.001 4.9991 274.147 3.8387C275.292 2.6783 276.872 1.99836 278.541 1.94745C280.209 1.99836 281.789 2.6783 282.935 3.8387C284.08 4.9991 284.699 6.54563 284.655 8.14036V12.3079H272.427V8.14036ZM269.37 28.8613V14.2554H287.712V28.8613H269.37Z" fill="#0D061C"></path><path d="M307.421 4.07674H303.751V12.9975H305.408V10.4232H307.421C309.766 10.4232 311.219 9.21253 311.219 7.24997C311.219 5.27467 309.766 4.07674 307.421 4.07674ZM307.345 9.02138H305.408V5.47857H307.345C308.798 5.47857 309.55 6.12851 309.55 7.24997C309.55 8.37144 308.798 9.02138 307.345 9.02138Z" fill="#0D061C"></path><path d="M314.175 7.18625V6.19223H312.658V12.9975H314.251V9.6968C314.251 8.30772 315.016 7.59406 316.227 7.59406C316.341 7.59406 316.456 7.6068 316.596 7.63229V6.11577C315.462 6.11577 314.634 6.47259 314.175 7.18625Z" fill="#0D061C"></path><path d="M318.75 5.07076C319.349 5.07076 319.77 4.63747 319.77 4.07674C319.77 3.55424 319.337 3.15918 318.75 3.15918C318.164 3.15918 317.731 3.57973 317.731 4.11497C317.731 4.65022 318.164 5.07076 318.75 5.07076ZM317.948 12.9975H319.541V6.19223H317.948V12.9975Z" fill="#0D061C"></path><path d="M326.474 6.19223L324.295 11.2388L322.179 6.19223H320.523L323.441 12.9975H325.085L328.003 6.19223H326.474Z" fill="#0D061C"></path><path d="M331.387 6.11577C330.291 6.11577 329.233 6.39613 328.507 6.95686L329.132 8.11656C329.641 7.69601 330.431 7.44113 331.196 7.44113C332.33 7.44113 332.891 7.98912 332.891 8.91942V9.02138H331.132C329.068 9.02138 328.303 9.91345 328.303 11.0477C328.303 12.2328 329.284 13.0867 330.839 13.0867C331.859 13.0867 332.598 12.7553 332.98 12.1691V12.9975H334.484V9.00863C334.484 7.04607 333.35 6.11577 331.387 6.11577ZM331.171 11.927C330.355 11.927 329.871 11.5574 329.871 10.9839C329.871 10.4869 330.164 10.0791 331.247 10.0791H332.891V10.8692C332.623 11.5702 331.948 11.927 331.171 11.927Z" fill="#0D061C"></path><path d="M339.713 13.0867C341.038 13.0867 342.096 12.5132 342.618 11.4937L341.395 10.78C340.987 11.43 340.376 11.7231 339.7 11.7231C338.528 11.7231 337.636 10.9202 337.636 9.59485C337.636 8.28223 338.528 7.46662 339.7 7.46662C340.376 7.46662 340.987 7.75973 341.395 8.40967L342.618 7.69601C342.096 6.66375 341.038 6.11577 339.713 6.11577C337.559 6.11577 336.03 7.55583 336.03 9.59485C336.03 11.6339 337.559 13.0867 339.713 13.0867Z" fill="#0D061C"></path><path d="M344.798 5.07076C345.397 5.07076 345.818 4.63747 345.818 4.07674C345.818 3.55424 345.385 3.15918 344.798 3.15918C344.212 3.15918 343.779 3.57973 343.779 4.11497C343.779 4.65022 344.212 5.07076 344.798 5.07076ZM343.995 12.9975H345.588V6.19223H343.995V12.9975Z" fill="#0D061C"></path><path d="M352.751 3.5415V7.03333C352.216 6.40888 351.439 6.11577 350.559 6.11577C348.584 6.11577 347.119 7.47936 347.119 9.59485C347.119 11.7103 348.584 13.0867 350.559 13.0867C351.49 13.0867 352.28 12.7681 352.815 12.1181V12.9975H354.344V3.5415H352.751ZM350.751 11.7231C349.604 11.7231 348.724 10.8947 348.724 9.59485C348.724 8.29497 349.604 7.46662 350.751 7.46662C351.897 7.46662 352.777 8.29497 352.777 9.59485C352.777 10.8947 351.897 11.7231 350.751 11.7231Z" fill="#0D061C"></path><path d="M359.028 6.11577C357.932 6.11577 356.874 6.39613 356.148 6.95686L356.772 8.11656C357.282 7.69601 358.072 7.44113 358.837 7.44113C359.971 7.44113 360.532 7.98912 360.532 8.91942V9.02138H358.773C356.709 9.02138 355.944 9.91345 355.944 11.0477C355.944 12.2328 356.925 13.0867 358.48 13.0867C359.5 13.0867 360.239 12.7553 360.621 12.1691V12.9975H362.125V9.00863C362.125 7.04607 360.991 6.11577 359.028 6.11577ZM358.811 11.927C357.996 11.927 357.511 11.5574 357.511 10.9839C357.511 10.4869 357.805 10.0791 358.888 10.0791H360.532V10.8692C360.264 11.5702 359.589 11.927 358.811 11.927Z" fill="#0D061C"></path><path d="M369.303 3.5415V7.03333C368.768 6.40888 367.991 6.11577 367.112 6.11577C365.136 6.11577 363.671 7.47936 363.671 9.59485C363.671 11.7103 365.136 13.0867 367.112 13.0867C368.042 13.0867 368.832 12.7681 369.367 12.1181V12.9975H370.896V3.5415H369.303ZM367.303 11.7231C366.156 11.7231 365.276 10.8947 365.276 9.59485C365.276 8.29497 366.156 7.46662 367.303 7.46662C368.45 7.46662 369.329 8.29497 369.329 9.59485C369.329 10.8947 368.45 11.7231 367.303 11.7231Z" fill="#0D061C"></path><path d="M379.378 9.63308C379.378 7.50485 377.925 6.11577 375.937 6.11577C373.911 6.11577 372.42 7.56857 372.42 9.59485C372.42 11.6211 373.898 13.0867 376.179 13.0867C377.352 13.0867 378.307 12.7044 378.919 11.978L378.065 10.9967C377.581 11.4937 376.982 11.7358 376.217 11.7358C375.032 11.7358 374.204 11.0986 374.013 10.1046H379.352C379.365 9.95168 379.378 9.76052 379.378 9.63308ZM375.937 7.39016C376.982 7.39016 377.734 8.06558 377.861 9.04686H374C374.153 8.05284 374.905 7.39016 375.937 7.39016Z" fill="#0D061C"></path><path d="M307.421 16.1671H303.751V25.0878H305.408V22.5136H307.421C309.766 22.5136 311.219 21.3029 311.219 19.3403C311.219 17.365 309.766 16.1671 307.421 16.1671ZM307.345 21.1117H305.408V17.5689H307.345C308.798 17.5689 309.55 18.2189 309.55 19.3403C309.55 20.4618 308.798 21.1117 307.345 21.1117Z" fill="#0D061C"></path><path d="M314.175 19.2766V18.2826H312.658V25.0878H314.251V21.7872C314.251 20.3981 315.016 19.6844 316.227 19.6844C316.341 19.6844 316.456 19.6972 316.596 19.7227V18.2061C315.462 18.2061 314.634 18.563 314.175 19.2766Z" fill="#0D061C"></path><path d="M320.944 25.1771C323.059 25.1771 324.576 23.7242 324.576 21.6852C324.576 19.6462 323.059 18.2061 320.944 18.2061C318.854 18.2061 317.325 19.6462 317.325 21.6852C317.325 23.7242 318.854 25.1771 320.944 25.1771ZM320.944 23.8135C319.797 23.8135 318.93 22.9851 318.93 21.6852C318.93 20.3853 319.797 19.557 320.944 19.557C322.104 19.557 322.97 20.3853 322.97 21.6852C322.97 22.9851 322.104 23.8135 320.944 23.8135Z" fill="#0D061C"></path><path d="M329.744 23.5841C329.502 23.7752 329.183 23.8644 328.852 23.8644C328.24 23.8644 327.909 23.5076 327.909 22.8449V19.608H329.731V18.3336H327.909V16.7788H326.316V18.3336H325.194V19.608H326.316V22.8831C326.316 24.3869 327.17 25.1771 328.661 25.1771C329.234 25.1771 329.808 25.0241 330.19 24.7183L329.744 23.5841Z" fill="#0D061C"></path><path d="M337.674 21.7235C337.674 19.5952 336.221 18.2061 334.233 18.2061C332.207 18.2061 330.716 19.6589 330.716 21.6852C330.716 23.7115 332.194 25.1771 334.475 25.1771C335.648 25.1771 336.603 24.7947 337.215 24.0683L336.361 23.0871C335.877 23.5841 335.278 23.8262 334.513 23.8262C333.328 23.8262 332.5 23.189 332.309 22.195H337.648C337.661 22.0421 337.674 21.8509 337.674 21.7235ZM334.233 19.4805C335.278 19.4805 336.03 20.156 336.157 21.1372H332.296C332.449 20.1432 333.201 19.4805 334.233 19.4805Z" fill="#0D061C"></path><path d="M344.442 18.2826V19.1874C343.881 18.512 343.04 18.2061 342.084 18.2061C340.134 18.2061 338.643 19.506 338.643 21.4813C338.643 23.4566 340.134 24.782 342.084 24.782C343.002 24.782 343.805 24.4889 344.365 23.8772V24.234C344.365 25.6103 343.703 26.2985 342.199 26.2985C341.256 26.2985 340.287 25.9799 339.688 25.4829L338.975 26.6808C339.752 27.318 341.014 27.6494 342.288 27.6494C344.671 27.6494 345.958 26.5279 345.958 24.0556V18.2826H344.442ZM342.326 23.4311C341.116 23.4311 340.249 22.641 340.249 21.4813C340.249 20.3344 341.116 19.557 342.326 19.557C343.524 19.557 344.391 20.3344 344.391 21.4813C344.391 22.641 343.524 23.4311 342.326 23.4311Z" fill="#0D061C"></path><path d="M348.855 17.1611C349.454 17.1611 349.875 16.7278 349.875 16.1671C349.875 15.6446 349.442 15.2496 348.855 15.2496C348.269 15.2496 347.836 15.6701 347.836 16.2053C347.836 16.7406 348.269 17.1611 348.855 17.1611ZM348.053 25.0878H349.646V18.2826H348.053V25.0878Z" fill="#0D061C"></path><path d="M356.808 15.6319V19.1237C356.273 18.4992 355.496 18.2061 354.617 18.2061C352.641 18.2061 351.176 19.5697 351.176 21.6852C351.176 23.8007 352.641 25.1771 354.617 25.1771C355.547 25.1771 356.337 24.8585 356.872 24.2085V25.0878H358.401V15.6319H356.808ZM354.808 23.8135C353.661 23.8135 352.781 22.9851 352.781 21.6852C352.781 20.3853 353.661 19.557 354.808 19.557C355.955 19.557 356.834 20.3853 356.834 21.6852C356.834 22.9851 355.955 23.8135 354.808 23.8135Z" fill="#0D061C"></path><path d="M363.085 18.2061C361.989 18.2061 360.931 18.4865 360.205 19.0472L360.829 20.2069C361.339 19.7864 362.129 19.5315 362.894 19.5315C364.028 19.5315 364.589 20.0795 364.589 21.0098V21.1117H362.83C360.766 21.1117 360.001 22.0038 360.001 23.138C360.001 24.3232 360.982 25.1771 362.537 25.1771C363.557 25.1771 364.296 24.8457 364.678 24.2595V25.0878H366.182V21.099C366.182 19.1364 365.048 18.2061 363.085 18.2061ZM362.869 24.0174C362.053 24.0174 361.569 23.6478 361.569 23.0743C361.569 22.5773 361.862 22.1695 362.945 22.1695H364.589V22.9596C364.321 23.6605 363.646 24.0174 362.869 24.0174Z" fill="#0D061C"></path><path d="M13.6736 0L0 4.3554V17.4216C0 24.6386 6.12109 30.4878 13.6736 30.4878C21.2262 30.4878 27.3473 24.6386 27.3473 17.4216V4.3554L13.6736 0ZM24.7835 17.4216C24.7835 23.2844 19.809 28.0379 13.6736 28.0379C7.5383 28.0379 2.56381 23.2844 2.56381 17.4216V6.19283L13.6736 2.44991L24.7835 6.19283V17.4216Z" fill="#0D061C"></path><path d="M8.91647 13.988C8.79766 13.874 8.65644 13.7835 8.50092 13.7217C8.3454 13.66 8.17865 13.6282 8.01024 13.6282C7.84182 13.6282 7.67507 13.66 7.51955 13.7217C7.36404 13.7835 7.22281 13.874 7.104 13.988C6.98465 14.1016 6.88994 14.2365 6.82531 14.3851C6.76068 14.5337 6.72742 14.6931 6.72742 14.854C6.72742 15.015 6.76068 15.1743 6.82531 15.3229C6.88994 15.4715 6.98465 15.6065 7.104 15.72L11.7117 20.123L11.7865 20.1945C11.8989 20.3021 12.0324 20.3874 12.1793 20.4457C12.3263 20.5039 12.4838 20.5339 12.6429 20.5339C12.802 20.5339 12.9595 20.5039 13.1065 20.4457C13.2534 20.3874 13.3869 20.3021 13.4993 20.1945L21.4578 12.5896C21.5704 12.4822 21.6597 12.3546 21.7206 12.2142C21.7816 12.0738 21.813 11.9232 21.813 11.7712C21.813 11.6192 21.7816 11.4687 21.7206 11.3282C21.6597 11.1878 21.5704 11.0603 21.4578 10.9529L21.3581 10.8576C21.2457 10.75 21.1122 10.6646 20.9652 10.6064C20.8183 10.5482 20.6608 10.5182 20.5017 10.5182C20.3426 10.5182 20.1851 10.5482 20.0381 10.6064C19.8912 10.6646 19.7577 10.75 19.6453 10.8576L12.6411 17.5472L8.91647 13.988Z" fill="#0D061C"></path><path d="M44.5825 12.5695C46.048 12.5695 47.2969 12.047 48.1253 11.0785L47.0548 10.059C46.4048 10.7726 45.602 11.1167 44.6717 11.1167C42.8238 11.1167 41.4857 9.81685 41.4857 7.98173C41.4857 6.1466 42.8238 4.84673 44.6717 4.84673C45.602 4.84673 46.4048 5.19081 47.0548 5.89173L48.1253 4.88496C47.2969 3.91642 46.048 3.39392 44.5952 3.39392C41.8553 3.39392 39.8162 5.31825 39.8162 7.98173C39.8162 10.6452 41.8553 12.5695 44.5825 12.5695Z" fill="#0D061C"></path><path d="M52.3694 12.5313C54.4849 12.5313 56.0014 11.0785 56.0014 9.03947C56.0014 7.00045 54.4849 5.56038 52.3694 5.56038C50.2794 5.56038 48.7501 7.00045 48.7501 9.03947C48.7501 11.0785 50.2794 12.5313 52.3694 12.5313ZM52.3694 11.1677C51.2224 11.1677 50.3558 10.3393 50.3558 9.03947C50.3558 7.73959 51.2224 6.91124 52.3694 6.91124C53.5291 6.91124 54.3957 7.73959 54.3957 9.03947C54.3957 10.3393 53.5291 11.1677 52.3694 11.1677Z" fill="#0D061C"></path><path d="M66.1141 5.56038C65.0308 5.56038 64.1133 5.99368 63.5653 6.69459C63.0938 5.92996 62.2654 5.56038 61.2714 5.56038C60.3411 5.56038 59.551 5.89173 59.0412 6.50343V5.63685H57.5247V12.4421H59.1177V8.9885C59.1177 7.63764 59.8313 6.94947 60.8891 6.94947C61.8576 6.94947 62.4183 7.53569 62.4183 8.74636V12.4421H64.0113V8.9885C64.0113 7.63764 64.7377 6.94947 65.7827 6.94947C66.7513 6.94947 67.312 7.53569 67.312 8.74636V12.4421H68.905V8.54246C68.905 6.49069 67.758 5.56038 66.1141 5.56038Z" fill="#0D061C"></path><path d="M74.7128 5.56038C73.7825 5.56038 72.9924 5.87898 72.4572 6.52892V5.63685H70.9406V14.9144H72.5336V11.6137C73.0816 12.2382 73.8462 12.5313 74.7128 12.5313C76.7009 12.5313 78.1664 11.155 78.1664 9.03947C78.1664 6.93673 76.7009 5.56038 74.7128 5.56038ZM74.5344 11.1677C73.3875 11.1677 72.5081 10.3393 72.5081 9.03947C72.5081 7.73959 73.3875 6.91124 74.5344 6.91124C75.6814 6.91124 76.548 7.73959 76.548 9.03947C76.548 10.3393 75.6814 11.1677 74.5344 11.1677Z" fill="#0D061C"></path><path d="M81.1937 6.63087V5.63685H79.6772V12.4421H81.2702V9.14142C81.2702 7.75234 82.0348 7.03868 83.2455 7.03868C83.3602 7.03868 83.4749 7.05142 83.615 7.07691V5.56038C82.4808 5.56038 81.6525 5.91721 81.1937 6.63087Z" fill="#0D061C"></path><path d="M87.5288 5.56038C86.4328 5.56038 85.3751 5.84075 84.6487 6.40148L85.2731 7.56118C85.7829 7.14063 86.573 6.88575 87.3377 6.88575C88.4719 6.88575 89.0326 7.43374 89.0326 8.36404V8.46599H87.2739C85.2094 8.46599 84.4448 9.35807 84.4448 10.4923C84.4448 11.6775 85.4261 12.5313 86.9808 12.5313C88.0003 12.5313 88.7395 12.2 89.1218 11.6137V12.4421H90.6256V8.45325C90.6256 6.49069 89.4914 5.56038 87.5288 5.56038ZM87.3122 11.3716C86.4966 11.3716 86.0123 11.002 86.0123 10.4286C86.0123 9.93154 86.3054 9.52374 87.3886 9.52374H89.0326V10.3139C88.765 11.0148 88.0895 11.3716 87.3122 11.3716Z" fill="#0D061C"></path><path d="M43.2189 24.6599C45.6657 24.6599 46.8254 23.4365 46.8254 22.0092C46.8254 18.734 41.5367 19.9701 41.5367 18.0713C41.5367 17.3959 42.0974 16.8606 43.4737 16.8606C44.2511 16.8606 45.1304 17.09 45.9333 17.5615L46.4558 16.2744C45.6784 15.7647 44.557 15.4843 43.4865 15.4843C41.0396 15.4843 39.8927 16.7077 39.8927 18.1478C39.8927 21.4612 45.1942 20.1995 45.1942 22.1239C45.1942 22.7865 44.6079 23.2836 43.2189 23.2836C42.1229 23.2836 40.9887 22.8758 40.275 22.3023L39.7015 23.5894C40.4407 24.2266 41.8298 24.6599 43.2189 24.6599Z" fill="#0D061C"></path><path d="M54.7127 21.1681C54.7127 19.0398 53.2599 17.6508 51.2718 17.6508C49.2455 17.6508 47.7545 19.1036 47.7545 21.1298C47.7545 23.1561 49.2328 24.6217 51.5139 24.6217C52.6864 24.6217 53.6422 24.2394 54.2539 23.513L53.4 22.5317C52.9158 23.0287 52.3168 23.2708 51.5522 23.2708C50.367 23.2708 49.5386 22.6336 49.3475 21.6396H54.6872C54.6999 21.4867 54.7127 21.2955 54.7127 21.1681ZM51.2718 18.9251C52.3168 18.9251 53.0687 19.6006 53.1961 20.5819H49.3347C49.4877 19.5878 50.2396 18.9251 51.2718 18.9251Z" fill="#0D061C"></path><path d="M61.4806 17.7272V18.632C60.9198 17.9566 60.0787 17.6508 59.123 17.6508C57.1731 17.6508 55.6821 18.9506 55.6821 20.9259C55.6821 22.9012 57.1731 24.2266 59.123 24.2266C60.0405 24.2266 60.8434 23.9335 61.4041 23.3218V23.6786C61.4041 25.055 60.7414 25.7431 59.2376 25.7431C58.2946 25.7431 57.3261 25.4245 56.7271 24.9275L56.0134 26.1254C56.7908 26.7626 58.0525 27.094 59.3269 27.094C61.71 27.094 62.9971 25.9725 62.9971 23.5002V17.7272H61.4806ZM59.3651 22.8758C58.1544 22.8758 57.2878 22.0856 57.2878 20.9259C57.2878 19.779 58.1544 19.0016 59.3651 19.0016C60.563 19.0016 61.4296 19.779 61.4296 20.9259C61.4296 22.0856 60.563 22.8758 59.3651 22.8758Z" fill="#0D061C"></path><path d="M70.087 17.7272V21.1681C70.087 22.5317 69.3351 23.2198 68.2264 23.2198C67.2196 23.2198 66.6334 22.6336 66.6334 21.3975V17.7272H65.0404V21.6141C65.0404 23.6659 66.2256 24.6217 67.9715 24.6217C68.8508 24.6217 69.6537 24.2903 70.1635 23.6659V24.5325H71.68V17.7272H70.087Z" fill="#0D061C"></path><path d="M75.2822 18.7212V17.7272H73.7657V24.5325H75.3587V21.2318C75.3587 19.8427 76.1233 19.129 77.334 19.129C77.4487 19.129 77.5634 19.1418 77.7036 19.1673V17.6508C76.5694 17.6508 75.741 18.0076 75.2822 18.7212Z" fill="#0D061C"></path><path d="M81.6173 17.6508C80.5214 17.6508 79.4636 17.9311 78.7372 18.4919L79.3617 19.6515C79.8714 19.231 80.6615 18.9761 81.4262 18.9761C82.5604 18.9761 83.1211 19.5241 83.1211 20.4544V20.5564H81.3625C79.2979 20.5564 78.5333 21.4484 78.5333 22.5826C78.5333 23.7678 79.5146 24.6217 81.0694 24.6217C82.0889 24.6217 82.828 24.2903 83.2103 23.7041V24.5325H84.7141V20.5436C84.7141 18.5811 83.5799 17.6508 81.6173 17.6508ZM81.4007 23.462C80.5851 23.462 80.1008 23.0924 80.1008 22.5189C80.1008 22.0219 80.3939 21.6141 81.4772 21.6141H83.1211V22.4042C82.8535 23.1051 82.1781 23.462 81.4007 23.462Z" fill="#0D061C"></path><path fill-rule="evenodd" clip-rule="evenodd" d="M130.073 13.4056C128.273 13.1587 126.627 12.3001 125.436 10.9872C124.245 9.67436 123.59 7.99531 123.59 6.25802V5.29525C123.59 3.43517 125.17 1.92555 127.116 1.92555H129.849C130.308 0.799101 131.453 0 132.795 0H146.626C147.263 0.000338749 147.885 0.184314 148.411 0.527863C148.936 0.871413 149.341 1.35854 149.572 1.92555H152.305C154.251 1.92555 155.831 3.43517 155.831 5.29525V6.25802C155.831 7.99531 155.176 9.67436 153.985 10.9872C152.794 12.3001 151.148 13.1587 149.349 13.4056C148.923 14.7304 148.204 15.9521 147.241 16.9877C146.277 18.0233 145.092 18.8487 143.765 19.4076L144.055 22.1919C144.065 22.2882 144.116 22.423 144.285 22.5847C144.458 22.7522 144.722 22.9121 145.036 23.0218C145.607 23.2202 146.282 23.5494 146.83 24.1155C147.404 24.7124 147.771 25.5077 147.771 26.4762V27.9204H150.29C150.69 27.9204 151.075 28.0726 151.358 28.3434C151.642 28.6142 151.801 28.9815 151.801 29.3646C151.801 29.7476 151.642 30.1149 151.358 30.3857C151.075 30.6566 150.69 30.8087 150.29 30.8087H129.132C128.731 30.8087 128.346 30.6566 128.063 30.3857C127.779 30.1149 127.62 29.7476 127.62 29.3646C127.62 28.9815 127.779 28.6142 128.063 28.3434C128.346 28.0726 128.731 27.9204 129.132 27.9204H131.65V26.4762C131.65 25.5077 132.017 24.7124 132.593 24.1155C133.137 23.5494 133.815 23.2202 134.385 23.0218C134.665 22.9291 134.921 22.7801 135.136 22.5847C135.306 22.421 135.356 22.2901 135.366 22.1919L135.656 19.4076C134.33 18.8484 133.145 18.023 132.181 16.9874C131.218 15.9518 130.5 14.7302 130.075 13.4056H130.073ZM129.635 4.81386H127.116C126.983 4.81386 126.855 4.86458 126.76 4.95486C126.666 5.04514 126.613 5.16758 126.613 5.29525V6.25802C126.613 8.14506 127.874 9.74904 129.635 10.344V4.81386ZM138.616 20.1605L138.375 22.4788C138.187 24.2599 136.646 25.3094 135.419 25.7349C135.192 25.802 134.986 25.9179 134.814 26.0738C134.739 26.1508 134.673 26.2529 134.673 26.4782V27.9223H144.748V26.4782C144.748 26.2529 144.682 26.1508 144.607 26.0738C144.436 25.9179 144.229 25.8019 144.003 25.7349C142.775 25.3094 141.234 24.2599 141.049 22.4807L140.807 20.1624C140.079 20.2377 139.344 20.2377 138.616 20.1624V20.1605ZM149.786 10.346V4.81386H152.305C152.438 4.81386 152.566 4.86458 152.661 4.95486C152.755 5.04514 152.808 5.16758 152.808 5.29525V6.25802C152.809 7.15418 152.518 8.02837 151.977 8.76015C151.436 9.49194 150.67 10.0453 149.786 10.344V10.346ZM132.658 3.01925C132.658 2.94801 132.718 2.88832 132.795 2.88832H146.626C146.701 2.88832 146.763 2.94608 146.763 3.01925V10.5905C146.763 12.3779 146.02 14.0921 144.698 15.356C143.375 16.6199 141.581 17.3299 139.711 17.3299C137.84 17.3299 136.046 16.6199 134.724 15.356C133.401 14.0921 132.658 12.3779 132.658 10.5905V3.01925V3.01925Z" fill="#0D061C"></path><path d="M139.711 4.62122L140.796 7.81446H144.31L141.467 9.788L142.553 12.9812L139.711 11.0077L136.868 12.9812L137.954 9.788L135.111 7.81446H138.625L139.711 4.62122Z" fill="#0D061C"></path><path d="M171.885 14.9042C174.332 14.9042 175.492 13.6808 175.492 12.2535C175.492 8.97829 170.203 10.2145 170.203 8.31561C170.203 7.64018 170.764 7.10494 172.14 7.10494C172.917 7.10494 173.797 7.33433 174.6 7.80585L175.122 6.51872C174.345 6.00896 173.223 5.7286 172.153 5.7286C169.706 5.7286 168.559 6.95201 168.559 8.39207C168.559 11.7055 173.86 10.4438 173.86 12.3682C173.86 13.0309 173.274 13.5279 171.885 13.5279C170.789 13.5279 169.655 13.1201 168.941 12.5466L168.368 13.8337C169.107 14.4709 170.496 14.9042 171.885 14.9042Z" fill="#0D061C"></path><path d="M179.581 7.89506C178.485 7.89506 177.428 8.17543 176.701 8.73616L177.326 9.89585C177.835 9.47531 178.625 9.22043 179.39 9.22043C180.524 9.22043 181.085 9.76842 181.085 10.6987V10.8007H179.326C177.262 10.8007 176.497 11.6927 176.497 12.827C176.497 14.0121 177.478 14.866 179.033 14.866C180.053 14.866 180.792 14.5346 181.174 13.9484V14.7768H182.678V10.7879C182.678 8.82537 181.544 7.89506 179.581 7.89506ZM179.365 13.7063C178.549 13.7063 178.065 13.3367 178.065 12.7632C178.065 12.2662 178.358 11.8584 179.441 11.8584H181.085V12.6485C180.817 13.3495 180.142 13.7063 179.365 13.7063Z" fill="#0D061C"></path><path d="M188.367 13.273C188.125 13.4641 187.806 13.5534 187.475 13.5534C186.863 13.5534 186.532 13.1965 186.532 12.5338V9.29689H188.354V8.0225H186.532V6.46775H184.939V8.0225H183.818V9.29689H184.939V12.5721C184.939 14.0759 185.793 14.866 187.284 14.866C187.857 14.866 188.431 14.7131 188.813 14.4072L188.367 13.273Z" fill="#0D061C"></path><path d="M190.926 6.85006C191.525 6.85006 191.946 6.41677 191.946 5.85604C191.946 5.33354 191.513 4.93848 190.926 4.93848C190.34 4.93848 189.907 5.35903 189.907 5.89427C189.907 6.42951 190.34 6.85006 190.926 6.85006ZM190.124 14.7768H191.717V7.97153H190.124V14.7768Z" fill="#0D061C"></path><path d="M195.91 14.866C197.822 14.866 198.994 14.0376 198.994 12.7632C198.994 10.0998 194.789 11.3232 194.789 9.94683C194.789 9.50079 195.247 9.1822 196.216 9.1822C196.866 9.1822 197.516 9.30964 198.166 9.69195L198.778 8.48128C198.166 8.11171 197.134 7.89506 196.229 7.89506C194.394 7.89506 193.234 8.73616 193.234 10.0233C193.234 12.7377 197.439 11.5143 197.439 12.8142C197.439 13.2857 197.019 13.5661 196.012 13.5661C195.158 13.5661 194.241 13.2857 193.642 12.8907L193.03 14.1013C193.642 14.5346 194.776 14.866 195.91 14.866Z" fill="#0D061C"></path><path d="M203.131 6.51872C203.463 6.51872 203.769 6.63342 204.011 6.79909L204.457 5.60116C204.1 5.34628 203.565 5.23159 203.017 5.23159C201.437 5.23159 200.583 6.16189 200.583 7.58921V8.0225H199.461V9.29689H200.583V14.7768H202.176V9.29689H203.998V8.0225H202.125V7.6147C202.125 6.88829 202.469 6.51872 203.131 6.51872Z" fill="#0D061C"></path><path d="M207.546 7.89506C206.45 7.89506 205.392 8.17543 204.666 8.73616L205.29 9.89585C205.8 9.47531 206.59 9.22043 207.354 9.22043C208.489 9.22043 209.049 9.76842 209.049 10.6987V10.8007H207.291C205.226 10.8007 204.462 11.6927 204.462 12.827C204.462 14.0121 205.443 14.866 206.998 14.866C208.017 14.866 208.756 14.5346 209.139 13.9484V14.7768H210.642V10.7879C210.642 8.82537 209.508 7.89506 207.546 7.89506ZM207.329 13.7063C206.513 13.7063 206.029 13.3367 206.029 12.7632C206.029 12.2662 206.322 11.8584 207.405 11.8584H209.049V12.6485C208.782 13.3495 208.106 13.7063 207.329 13.7063Z" fill="#0D061C"></path><path d="M215.859 13.5024C214.686 13.5024 213.794 12.6995 213.794 11.3741C213.794 10.0615 214.686 9.24592 215.859 9.24592C216.534 9.24592 217.146 9.53903 217.553 10.189L218.777 9.47531C218.254 8.44305 217.197 7.89506 215.871 7.89506C213.718 7.89506 212.188 9.33512 212.188 11.3741C212.188 13.171 213.373 14.5091 215.119 14.8023L214.801 15.9874H215.196C215.68 15.9874 215.871 16.1659 215.871 16.408C215.871 16.6884 215.667 16.8668 215.196 16.8668C214.877 16.8668 214.597 16.8031 214.329 16.6629L214.036 17.4148C214.355 17.5932 214.75 17.6824 215.209 17.6824C216.254 17.6824 216.942 17.2109 216.942 16.4717C216.942 15.9237 216.585 15.4904 215.833 15.4012L215.973 14.866C217.248 14.8405 218.267 14.267 218.777 13.273L217.553 12.5593C217.146 13.2093 216.534 13.5024 215.859 13.5024Z" fill="#0D061C"></path><path d="M222.078 6.20012C222.537 6.20012 222.97 7.04122 223.811 7.04122C224.627 7.04122 225.162 6.36579 225.188 5.37177H224.334C224.308 5.83055 224.066 6.09817 223.709 6.09817C223.251 6.09817 222.817 5.25707 221.976 5.25707C221.161 5.25707 220.625 5.91976 220.6 6.96476H221.454C221.479 6.48049 221.721 6.20012 222.078 6.20012ZM222.754 7.89506C221.658 7.89506 220.6 8.17543 219.874 8.73616L220.498 9.89585C221.008 9.47531 221.798 9.22043 222.563 9.22043C223.697 9.22043 224.257 9.76842 224.257 10.6987V10.8007H222.499C220.434 10.8007 219.67 11.6927 219.67 12.827C219.67 14.0121 220.651 14.866 222.206 14.866C223.225 14.866 223.964 14.5346 224.347 13.9484V14.7768H225.85V10.7879C225.85 8.82537 224.716 7.89506 222.754 7.89506ZM222.537 13.7063C221.721 13.7063 221.237 13.3367 221.237 12.7632C221.237 12.2662 221.53 11.8584 222.614 11.8584H224.257V12.6485C223.99 13.3495 223.314 13.7063 222.537 13.7063Z" fill="#0D061C"></path><path d="M231.016 14.866C233.131 14.866 234.648 13.4132 234.648 11.3741C234.648 9.33512 233.131 7.89506 231.016 7.89506C228.926 7.89506 227.396 9.33512 227.396 11.3741C227.396 13.4132 228.926 14.866 231.016 14.866ZM231.016 13.5024C229.869 13.5024 229.002 12.674 229.002 11.3741C229.002 10.0743 229.869 9.24592 231.016 9.24592C232.175 9.24592 233.042 10.0743 233.042 11.3741C233.042 12.674 232.175 13.5024 231.016 13.5024Z" fill="#0D061C"></path><path d="M175.211 25.083C174.638 25.4143 174.013 25.5418 173.376 25.5418C171.49 25.5418 170.152 24.2164 170.152 22.4068C170.152 20.5589 171.49 19.2718 173.389 19.2718C174.345 19.2718 175.148 19.5904 175.848 20.2913L176.893 19.2718C176.052 18.316 174.803 17.819 173.312 17.819C170.522 17.819 168.482 19.7433 168.482 22.4068C168.482 25.0703 170.522 26.9946 173.287 26.9946C174.549 26.9946 175.848 26.6123 176.779 25.8604V22.3048H175.211V25.083Z" fill="#0D061C"></path><path d="M181.411 19.9854C180.315 19.9854 179.257 20.2658 178.531 20.8265L179.155 21.9862C179.665 21.5657 180.455 21.3108 181.22 21.3108C182.354 21.3108 182.914 21.8588 182.914 22.7891V22.891H181.156C179.091 22.891 178.327 23.7831 178.327 24.9173C178.327 26.1025 179.308 26.9564 180.863 26.9564C181.882 26.9564 182.621 26.625 183.004 26.0388V26.8671H184.507V22.8783C184.507 20.9157 183.373 19.9854 181.411 19.9854ZM181.194 25.7967C180.378 25.7967 179.894 25.4271 179.894 24.8536C179.894 24.3566 180.187 23.9488 181.271 23.9488H182.914V24.7389C182.647 25.4398 181.971 25.7967 181.194 25.7967Z" fill="#0D061C"></path><path d="M188.068 21.0559V20.0619H186.552V26.8671H188.145V23.5665C188.145 22.1774 188.909 21.4637 190.12 21.4637C190.235 21.4637 190.35 21.4765 190.49 21.502V19.9854C189.356 19.9854 188.527 20.3423 188.068 21.0559Z" fill="#0D061C"></path><path d="M194.403 19.9854C193.308 19.9854 192.25 20.2658 191.523 20.8265L192.148 21.9862C192.658 21.5657 193.448 21.3108 194.212 21.3108C195.347 21.3108 195.907 21.8588 195.907 22.7891V22.891H194.149C192.084 22.891 191.319 23.7831 191.319 24.9173C191.319 26.1025 192.301 26.9564 193.856 26.9564C194.875 26.9564 195.614 26.625 195.996 26.0388V26.8671H197.5V22.8783C197.5 20.9157 196.366 19.9854 194.403 19.9854ZM194.187 25.7967C193.371 25.7967 192.887 25.4271 192.887 24.8536C192.887 24.3566 193.18 23.9488 194.263 23.9488H195.907V24.7389C195.64 25.4398 194.964 25.7967 194.187 25.7967Z" fill="#0D061C"></path><path d="M203.406 19.9854C202.412 19.9854 201.584 20.3168 201.061 20.9412V20.0619H199.545V26.8671H201.138V23.4263C201.138 22.0627 201.902 21.3745 203.036 21.3745C204.056 21.3745 204.655 21.9607 204.655 23.1714V26.8671H206.248V22.9675C206.248 20.9157 205.037 19.9854 203.406 19.9854Z" fill="#0D061C"></path><path d="M211.914 25.3634C211.671 25.5545 211.353 25.6437 211.021 25.6437C210.41 25.6437 210.078 25.2869 210.078 24.6242V21.3873H211.901V20.1129H210.078V18.5581H208.485V20.1129H207.364V21.3873H208.485V24.6624C208.485 26.1662 209.339 26.9564 210.83 26.9564C211.404 26.9564 211.977 26.8034 212.36 26.4976L211.914 25.3634Z" fill="#0D061C"></path><path d="M214.473 18.9404C215.072 18.9404 215.492 18.5071 215.492 17.9464C215.492 17.4239 215.059 17.0288 214.473 17.0288C213.887 17.0288 213.453 17.4494 213.453 17.9846C213.453 18.5199 213.887 18.9404 214.473 18.9404ZM213.67 26.8671H215.263V20.0619H213.67V26.8671Z" fill="#0D061C"></path><path d="M222.426 17.4112V20.903C221.891 20.2785 221.113 19.9854 220.234 19.9854C218.259 19.9854 216.793 21.349 216.793 23.4645C216.793 25.58 218.259 26.9564 220.234 26.9564C221.164 26.9564 221.954 26.6378 222.49 25.9878V26.8671H224.019V17.4112H222.426ZM220.425 25.5928C219.278 25.5928 218.399 24.7644 218.399 23.4645C218.399 22.1646 219.278 21.3363 220.425 21.3363C221.572 21.3363 222.451 22.1646 222.451 23.4645C222.451 24.7644 221.572 25.5928 220.425 25.5928Z" fill="#0D061C"></path><path d="M228.703 19.9854C227.607 19.9854 226.549 20.2658 225.822 20.8265L226.447 21.9862C226.957 21.5657 227.747 21.3108 228.511 21.3108C229.646 21.3108 230.206 21.8588 230.206 22.7891V22.891H228.448C226.383 22.891 225.618 23.7831 225.618 24.9173C225.618 26.1025 226.6 26.9564 228.155 26.9564C229.174 26.9564 229.913 26.625 230.296 26.0388V26.8671H231.799V22.8783C231.799 20.9157 230.665 19.9854 228.703 19.9854ZM228.486 25.7967C227.67 25.7967 227.186 25.4271 227.186 24.8536C227.186 24.3566 227.479 23.9488 228.562 23.9488H230.206V24.7389C229.939 25.4398 229.263 25.7967 228.486 25.7967Z" fill="#0D061C"></path></svg>