<svg xmlns="http://www.w3.org/2000/svg" width="426" height="426" viewBox="0 0 426 426" fill="none"><path opacity="0.5" d="M6.00003 213C6.00003 327.323 98.6771 420 213 420C327.323 420 420 327.323 420 213C420 98.6771 327.323 6 213 6C98.6771 6 6.00003 98.6771 6.00003 213Z" stroke="url(#paint0_linear_46_191)" stroke-width="10.35" stroke-dasharray="1.72 10.35"></path><path d="M212.965 281.515C250.824 281.515 281.515 250.824 281.515 212.966C281.515 175.107 250.824 144.416 212.965 144.416C175.106 144.416 144.416 175.107 144.416 212.966C144.416 250.824 175.106 281.515 212.965 281.515Z" stroke="#495571" stroke-width="9.19568" stroke-dasharray="1.53 12.26"></path><path opacity="0.3" d="M212.968 365.842C297.4 365.842 365.845 297.396 365.845 212.964C365.845 128.532 297.4 60.0869 212.968 60.0869C128.536 60.0869 60.0903 128.532 60.0903 212.964C60.0903 297.396 128.536 365.842 212.968 365.842Z" stroke="url(#paint1_linear_46_191)" stroke-width="1.46295"></path><path d="M190.256 255.73L223.418 190.11V189.563H184.788V175.736H240.916V189.759L207.716 255.73H190.256Z" fill="url(#paint2_linear_46_191)"></path><path fill-rule="evenodd" clip-rule="evenodd" d="M223.641 105.887C219.976 105.418 217.618 102.304 218.063 98.826C218.505 95.3666 221.573 92.927 225.238 93.3955C226.864 93.6035 228.214 94.3462 229.202 95.3848L227.723 96.6972C226.989 95.9001 226.09 95.5001 225.005 95.3614C222.63 95.0578 220.624 96.7778 220.325 99.1152C220.026 101.453 221.536 103.622 223.91 103.926C225.182 104.088 226.378 103.652 227.222 102.848L227.49 100.753L225.265 100.469L225.496 98.6551L229.816 99.2073L229.211 103.938C227.919 105.427 225.828 106.167 223.641 105.887ZM188.149 95.2568L189.837 107.356L199.49 106.008L199.229 104.141L191.742 105.186L191.245 101.62L198.06 100.669L197.802 98.8204L190.987 99.7716L190.575 96.8216L197.801 95.8131L197.54 93.946L188.149 95.2568ZM172.348 112.687L168.709 101.026L173.28 99.5991C177.077 98.4142 180.296 100.313 181.29 103.498C182.284 106.683 180.716 110.075 176.919 111.26L172.348 112.687ZM173.874 110.236L176.267 109.489C178.733 108.72 179.837 106.499 179.112 104.177C178.388 101.856 176.217 100.657 173.751 101.427L171.358 102.174L173.874 110.236ZM147.428 124.975C148.516 125.18 150.245 125.271 152.493 123.852C154.534 122.564 156.056 120.243 154.688 118.075C153.42 116.066 151.06 116.53 148.807 117.306C147.373 117.788 146.277 118.1 145.754 117.271C145.16 116.331 146.159 115.299 146.844 114.866C147.913 114.192 149.04 113.86 150.337 113.866L150.159 111.994C148.68 111.947 147.271 112.257 145.788 113.192C143.875 114.4 142.665 116.545 143.883 118.474C145.181 120.531 147.524 119.899 149.703 119.148C150.916 118.739 152.165 118.352 152.759 119.293C153.352 120.233 152.569 121.464 151.453 122.168C149.906 123.144 148.538 123.272 147.26 123.12L147.428 124.975ZM133.756 139.134L129.747 126.349L131.296 124.971L143.529 130.436L141.868 131.915L139.746 130.977L134.733 135.439L135.418 137.655L133.756 139.134ZM134.143 133.642L138.029 130.183L134.882 128.744C133.685 128.194 132.088 127.42 132.088 127.42C132.088 127.42 132.673 129.07 133.079 130.349L134.143 133.642ZM118.546 138.713L127.847 146.633L129.265 144.968L119.964 137.048L118.546 138.713ZM117.57 161.993L107.288 155.397L109.873 151.367C112.021 148.019 115.707 147.405 118.516 149.206C121.324 151.008 122.303 154.614 120.156 157.963L117.57 161.993ZM117.164 159.134L118.518 157.024C119.912 154.85 119.331 152.439 117.284 151.126C115.237 149.813 112.803 150.29 111.409 152.464L110.055 154.575L117.164 159.134ZM100.217 177.647L108.443 185.767L109.147 183.597L100.478 175.194L99.1691 174.77L96.37 183.395L98.1631 183.976L100.217 177.647ZM101.669 222.695L99.9542 222.734L99.7778 215.12L101.493 215.081L101.669 222.695ZM318.408 234.776L327.023 242.481L328.764 236.058L330.583 236.552L328.211 245.304L326.883 244.944L317.811 236.977L318.408 234.776ZM310.51 258.818L321.118 264.876L318.744 269.034C316.771 272.488 313.121 273.291 310.224 271.637C307.326 269.982 306.163 266.431 308.135 262.976L310.51 258.818ZM311.063 261.652L309.819 263.829C308.539 266.072 309.243 268.45 311.355 269.656C313.467 270.862 315.873 270.26 317.153 268.017L318.397 265.84L311.063 261.652ZM310.642 282.2L300.95 274.764L299.619 276.499L309.311 283.935L310.642 282.2ZM295.313 282.622L299.967 295.186L298.49 296.642L285.995 291.805L287.579 290.244L289.746 291.073L294.526 286.362L293.728 284.183L295.313 282.622ZM295.206 288.126L291.5 291.779L294.717 293.055C295.94 293.544 297.574 294.236 297.574 294.236C297.574 294.236 296.906 292.618 296.436 291.361L295.206 288.126ZM281.984 297.694C280.887 297.541 279.156 297.533 276.978 299.057C275.001 300.441 273.591 302.832 275.061 304.932C276.423 306.878 278.758 306.302 280.971 305.421C282.381 304.871 283.461 304.507 284.023 305.31C284.661 306.221 283.712 307.299 283.048 307.764C282.013 308.488 280.903 308.874 279.607 308.929L279.874 310.791C281.354 310.768 282.747 310.391 284.183 309.386C286.036 308.088 287.143 305.888 285.835 304.019C284.44 302.027 282.13 302.769 279.989 303.623C278.797 304.089 277.567 304.535 276.93 303.624C276.292 302.713 277.016 301.447 278.098 300.69C279.596 299.641 280.956 299.449 282.24 299.54L281.984 297.694ZM257.728 311.007L261.934 322.476L257.438 324.125C253.703 325.494 250.395 323.756 249.246 320.623C248.098 317.49 249.498 314.025 253.232 312.656L257.728 311.007ZM256.324 313.53L253.97 314.393C251.545 315.282 250.551 317.554 251.388 319.838C252.225 322.121 254.453 323.212 256.877 322.323L259.231 321.459L256.324 313.53ZM242.684 329.133L240.395 317.133L230.821 318.959L231.174 320.811L238.6 319.395L239.275 322.932L232.516 324.221L232.865 326.054L239.624 324.765L240.182 327.691L233.016 329.058L233.369 330.91L242.684 329.133ZM207.266 320.137C210.95 320.421 213.46 323.414 213.19 326.91C212.921 330.387 209.979 332.977 206.295 332.692C204.66 332.566 203.275 331.891 202.236 330.903L203.647 329.519C204.421 330.278 205.339 330.633 206.429 330.717C208.816 330.902 210.734 329.083 210.915 326.734C211.097 324.384 209.481 322.293 207.094 322.109C205.816 322.01 204.643 322.505 203.841 323.351L203.678 325.456L205.915 325.629L205.774 327.452L201.432 327.116L201.799 322.361C203.016 320.81 205.067 319.967 207.266 320.137ZM186.857 329.899L195.247 319.452L193.094 318.895L191.634 320.698L185.137 319.016L184.735 316.731L182.581 316.174L184.85 329.38L186.857 329.899ZM185.432 320.884L190.469 322.188L188.325 324.905C187.489 325.954 186.444 327.358 186.444 327.358C186.444 327.358 186.198 325.6 185.989 324.3L185.432 320.884ZM175.753 314.197L170.702 325.32L165.999 323.185C162.806 321.735 161.972 319.058 163.04 316.706C163.718 315.213 165.164 314.172 166.959 314.138L165.986 309.762L168.303 310.815L169.011 314.407C169.343 314.496 169.702 314.618 170.046 314.774L172.569 315.919L173.761 313.293L175.753 314.197ZM171.789 317.636L168.992 316.366C167.395 315.641 165.765 316.267 165.134 317.657C164.487 319.082 165.088 320.721 166.667 321.439L169.482 322.717L171.789 317.636ZM149.296 314.526L160.709 307.506L158.868 306.258L156.887 307.465L151.333 303.698L151.722 301.411L149.881 300.162L147.58 313.362L149.296 314.526ZM150.983 305.557L155.289 308.477L152.357 310.315C151.217 311.023 149.761 311.994 149.761 311.994C149.761 311.994 150.12 310.256 150.36 308.961L150.983 305.557ZM144.132 296.061L135.652 304.855L134.051 303.311L135.064 295.959C135.264 294.502 135.722 292.588 135.722 292.588L129.559 298.979L127.985 297.461L136.465 288.668L138.093 290.238L137.14 297.228C136.892 299.006 136.446 300.881 136.446 300.881L142.558 294.543L144.132 296.061ZM120.698 286.576L128.985 280.408L127.679 278.653L119.392 284.822L116.826 281.374L115.313 282.499L121.752 291.149L123.264 290.024L120.698 286.576ZM121.121 269.321L110.469 275.3L109.398 273.393L120.051 267.414L121.121 269.321ZM102.704 260.327L116.084 261.039L115.279 258.965L112.963 258.833L110.535 252.576L112.155 250.916L111.351 248.842L101.954 258.394L102.704 260.327ZM109.191 253.907L111.074 258.757L107.616 258.603C106.276 258.537 104.526 258.508 104.526 258.508C104.526 258.508 105.809 257.282 106.743 256.353L109.191 253.907ZM243.989 96.9787L235.095 107L237.219 107.663L238.765 105.934L245.172 107.933L245.461 110.235L247.584 110.898L245.968 97.5965L243.989 96.9787ZM244.969 106.053L240.002 104.503L242.277 101.895C243.164 100.888 244.277 99.5371 244.277 99.5371C244.277 99.5371 244.436 101.305 244.58 102.614L244.969 106.053ZM254.533 113.229L260.115 102.362L264.709 104.722C267.828 106.325 268.532 109.039 267.352 111.336C266.603 112.795 265.108 113.765 263.313 113.712L264.074 118.13L261.811 116.967L261.277 113.344C260.949 113.239 260.596 113.101 260.261 112.928L257.796 111.662L256.478 114.228L254.533 113.229ZM258.657 109.985L261.391 111.389C262.95 112.19 264.609 111.643 265.306 110.285C266.021 108.893 265.5 107.227 263.957 106.434L261.207 105.022L258.657 109.985ZM280.851 114.034L269.118 120.504L270.898 121.839L272.934 120.727L278.303 124.753L277.805 127.019L279.585 128.354L282.51 115.278L280.851 114.034ZM278.74 122.913L274.578 119.791L277.594 118.095C278.766 117.443 280.267 116.541 280.267 116.541C280.267 116.541 279.826 118.261 279.524 119.543L278.74 122.913ZM285.527 133.007L294.443 124.656L295.964 126.28L294.578 133.57C294.304 135.015 293.749 136.904 293.749 136.904L300.229 130.834L301.724 132.43L292.808 140.781L291.262 139.13L292.569 132.197C292.907 130.434 293.447 128.585 293.447 128.585L287.022 134.603L285.527 133.007ZM308.237 143.309L299.666 149.076L300.887 150.891L309.457 145.123L311.857 148.689L313.421 147.637L307.401 138.69L305.837 139.743L308.237 143.309ZM307.031 160.52L317.958 155.06L318.936 157.016L308.008 162.476L307.031 160.52ZM325.113 170.616L311.783 169.252L312.486 171.363L314.793 171.608L316.913 177.976L315.213 179.555L315.916 181.665L325.768 172.584L325.113 170.616ZM318.32 176.712L316.677 171.776L320.122 172.099C321.458 172.231 323.204 172.345 323.204 172.345C323.204 172.345 321.862 173.507 320.884 174.388L318.32 176.712Z" fill="white"></path><defs><linearGradient id="paint0_linear_46_191" x1="213" y1="361.989" x2="213" y2="42.0335" gradientUnits="userSpaceOnUse"><stop stop-color="#2B2F3A" stop-opacity="0"></stop><stop offset="0.196628" stop-color="#4F01CA"></stop><stop offset="0.81159" stop-color="#DB0FDB"></stop><stop offset="0.986765" stop-color="#2B2F3A" stop-opacity="0"></stop></linearGradient><linearGradient id="paint1_linear_46_191" x1="60.0903" y1="212.964" x2="365.845" y2="212.964" gradientUnits="userSpaceOnUse"><stop stop-color="#4F01CA"></stop><stop offset="1" stop-color="#DB0FDB"></stop></linearGradient><linearGradient id="paint2_linear_46_191" x1="184.788" y1="215.733" x2="240.916" y2="215.733" gradientUnits="userSpaceOnUse"><stop stop-color="#4F01CA"></stop><stop offset="1" stop-color="#DB0FDB"></stop></linearGradient></defs></svg>