<svg xmlns="http://www.w3.org/2000/svg" width="247" height="247" viewBox="0 0 247 247" fill="none"><path d="M110.087 216.633L109.601 221.408L110.079 221.457L109.517 226.978C109.406 228.073 109.611 228.928 110.131 229.543C110.631 230.157 111.429 230.52 112.523 230.631C113.14 230.694 113.778 230.749 114.436 230.795C115.095 230.842 115.724 230.886 116.323 230.927C116.922 230.968 117.442 230.991 117.884 230.995L117.629 233.502C117.187 233.498 116.726 233.481 116.247 233.452C115.745 233.441 115.236 233.41 114.719 233.357C114.199 233.324 113.701 233.284 113.223 233.235C111.592 233.069 110.279 232.735 109.285 232.232C108.288 231.748 107.586 231.044 107.178 230.118C106.769 229.192 106.641 227.982 106.793 226.49L107.819 216.402L110.087 216.633ZM115.352 216.746C116.546 216.867 117.561 217.172 118.396 217.659C119.209 218.163 119.815 218.828 120.213 219.653C120.592 220.475 120.726 221.434 120.614 222.528C120.499 223.662 120.154 224.582 119.58 225.288C118.986 225.991 118.182 226.482 117.169 226.761C116.153 227.06 114.959 227.14 113.586 227L109.258 226.56L109.477 224.411L113.924 224.863C115.078 224.98 115.992 224.792 116.665 224.298C117.339 223.803 117.72 223.118 117.809 222.243C117.898 221.367 117.661 220.63 117.099 220.03C116.537 219.43 115.679 219.071 114.525 218.954C113.848 218.885 113.19 218.938 112.548 219.114C111.905 219.31 111.355 219.677 110.899 220.213C110.42 220.768 110.109 221.56 109.963 222.591L109.303 221.378C109.518 220.254 109.893 219.327 110.43 218.598C110.945 217.886 111.62 217.372 112.456 217.055C113.273 216.736 114.238 216.633 115.352 216.746Z" fill="white"></path><path d="M94.4348 212.366C95.7515 212.779 96.8246 213.368 97.6542 214.131C98.4646 214.888 99.0649 215.747 99.4552 216.708C99.8394 217.688 100.047 218.697 100.078 219.734C100.09 220.764 99.9494 221.747 99.656 222.682L99.4943 223.198C99.189 224.171 98.7369 225.077 98.1382 225.916C97.5205 226.75 96.7799 227.44 95.9167 227.986C95.0284 228.546 94.0353 228.905 92.9375 229.064C91.8397 229.222 90.6515 229.101 89.3729 228.7C88.0944 228.299 87.0243 227.701 86.1626 226.907C85.2818 226.106 84.6738 225.171 84.3385 224.102C83.9782 223.046 83.9455 221.914 84.2404 220.707L86.8738 221.533C86.708 222.529 86.8985 223.459 87.4451 224.322C87.9858 225.204 88.8858 225.843 90.1453 226.238C91.233 226.58 92.2173 226.616 93.0981 226.347C93.9789 226.079 94.7353 225.572 95.3673 224.827C95.9993 224.082 96.486 223.166 96.8272 222.078C97.1565 221.028 97.2776 220.008 97.1904 219.016C97.0973 218.044 96.769 217.186 96.2055 216.443C95.6169 215.714 94.7692 215.175 93.6624 214.828C92.8037 214.559 92.0116 214.478 91.2861 214.585C90.5605 214.693 89.9261 214.945 89.3828 215.34C88.8395 215.736 88.4279 216.246 88.148 216.871L85.5146 216.045C85.949 214.86 86.6283 213.931 87.5526 213.257C88.4577 212.577 89.5129 212.153 90.7181 211.986C91.8983 211.832 93.1372 211.959 94.4348 212.366Z" fill="white"></path><path d="M77.2687 204.788C78.4928 205.468 79.4343 206.265 80.0932 207.179C80.752 208.094 81.172 209.048 81.3531 210.04C81.5244 211.05 81.5122 212.062 81.3164 213.074C81.1031 214.076 80.7489 215.023 80.2539 215.915L79.9919 216.387C79.4871 217.297 78.8658 218.107 78.1279 218.818C77.3725 219.52 76.5258 220.056 75.5877 220.428C74.6399 220.817 73.6259 220.974 72.5458 220.901C71.4385 220.835 70.299 220.477 69.1274 219.827C67.6061 218.983 66.5402 217.956 65.9297 216.748C65.2921 215.548 65.0235 214.301 65.124 213.007C65.2071 211.704 65.5737 210.466 66.224 209.295L66.8501 208.167L79.2833 215.068L78.235 216.956L67.6379 211.074L68.7828 210.372C68.2296 211.368 67.9114 212.313 67.8282 213.204C67.7353 214.113 67.892 214.944 68.2983 215.695C68.7046 216.447 69.3886 217.09 70.3504 217.624C71.3471 218.177 72.3039 218.411 73.2208 218.325C74.1202 218.229 74.9544 217.88 75.7234 217.278C76.4749 216.666 77.137 215.844 77.7097 214.812C78.2629 213.815 78.6054 212.827 78.7371 211.848C78.8416 210.877 78.6839 209.966 78.264 209.115C77.8344 208.282 77.095 207.574 76.0457 206.992C74.9441 206.38 73.9163 206.13 72.9626 206.241C71.9913 206.342 71.2562 206.678 70.7572 207.247L68.3965 205.937C69.1226 205.082 69.9684 204.465 70.9337 204.086C71.899 203.706 72.9208 203.576 73.9989 203.694C75.0771 203.812 76.167 204.177 77.2687 204.788Z" fill="white"></path><path d="M62.1278 194.156C63.7211 195.524 64.6648 196.927 64.9587 198.365C65.2375 199.791 64.884 201.108 63.8982 202.318L61.8495 200.559C62.223 200.063 62.3721 199.413 62.2968 198.611C62.1933 197.81 61.6028 196.947 60.5254 196.022C59.5542 195.189 58.6477 194.74 57.8061 194.676C56.9514 194.628 56.2831 194.885 55.8011 195.446C55.3712 195.947 55.2287 196.497 55.3735 197.096C55.5054 197.71 55.9572 198.427 56.7288 199.247L57.9318 200.517C58.9809 201.629 59.6286 202.778 59.875 203.965C60.1084 205.167 59.7821 206.284 58.8963 207.316C58.2319 208.09 57.4679 208.58 56.6043 208.788C55.7278 209.011 54.8167 208.967 53.8711 208.656C52.9125 208.36 51.978 207.821 51.0674 207.04C49.7017 205.867 48.8544 204.613 48.5257 203.276C48.197 201.94 48.5321 200.659 49.5309 199.434L51.5795 201.193C51.1778 201.691 51.0537 202.296 51.2072 203.008C51.3325 203.722 51.82 204.444 52.6698 205.173C53.5196 205.903 54.3144 206.282 55.0541 206.311C55.7938 206.339 56.3917 206.088 56.8476 205.557C57.2384 205.102 57.3993 204.607 57.3303 204.074C57.2462 203.527 56.88 202.909 56.2319 202.221L55.0289 200.951C53.8411 199.694 53.1067 198.431 52.8256 197.162C52.5316 195.908 52.8405 194.75 53.7524 193.687C54.4038 192.929 55.2036 192.442 56.1517 192.228C57.0717 192.016 58.0543 192.069 59.0997 192.387C60.132 192.719 61.1414 193.309 62.1278 194.156Z" fill="white"></path><path d="M49.1594 180.376C50.4448 182.036 51.0867 183.601 51.085 185.069C51.0711 186.521 50.4596 187.741 49.2505 188.727L47.5978 186.592C48.0636 186.181 48.3404 185.575 48.4282 184.773C48.488 183.968 48.0833 183.004 47.2141 181.882C46.4306 180.869 45.633 180.247 44.8214 180.016C43.994 179.796 43.2877 179.913 42.7025 180.366C42.1806 180.77 41.9303 181.28 41.9517 181.896C41.9572 182.524 42.2554 183.317 42.846 184.276L43.7687 185.762C44.5726 187.062 44.9758 188.318 44.9782 189.53C44.9649 190.755 44.4205 191.783 43.345 192.616C42.5384 193.24 41.6913 193.567 40.8036 193.596C39.9002 193.638 39.0166 193.412 38.153 192.917C37.2735 192.434 36.4665 191.718 35.732 190.769C34.6302 189.346 34.0529 187.947 33.9999 186.571C33.947 185.196 34.533 184.009 35.7579 183.01L37.4106 185.145C36.9168 185.553 36.6734 186.12 36.6805 186.848C36.6595 187.573 36.9918 188.378 37.6773 189.264C38.3629 190.149 39.0651 190.681 39.7838 190.858C40.5026 191.035 41.1388 190.909 41.6923 190.481C42.1668 190.113 42.4239 189.661 42.4638 189.125C42.4914 188.572 42.257 187.894 41.7607 187.089L40.838 185.603C39.9275 184.133 39.4624 182.748 39.4426 181.448C39.407 180.16 39.9427 179.088 41.0498 178.231C41.8406 177.619 42.7219 177.303 43.6937 177.285C44.6375 177.262 45.5894 177.512 46.5494 178.033C47.4937 178.567 48.3637 179.348 49.1594 180.376Z" fill="white"></path><path d="M39.2687 164.209C39.8853 165.466 40.2115 166.676 40.2474 167.839C40.2832 169.002 40.114 170.088 39.7396 171.095C39.3384 172.094 38.7816 172.98 38.0691 173.753C37.3478 174.507 36.5293 175.109 35.6135 175.559L35.1287 175.796C34.2129 176.246 33.2314 176.516 32.1842 176.606C31.1191 176.705 30.0734 176.594 29.0472 176.273C28.0031 175.961 27.0411 175.431 26.1613 174.682C25.2636 173.941 24.5152 172.961 23.9163 171.74C23.3173 170.519 22.9999 169.327 22.9641 168.164C22.9102 167.009 23.0795 165.924 23.4718 164.907C23.8462 163.899 24.3987 163.005 25.1291 162.223C25.8416 161.45 26.6558 160.839 27.5715 160.39L28.0563 160.152C28.9721 159.703 29.9536 159.433 31.0008 159.343C32.0392 159.235 33.0804 159.336 34.1246 159.648C35.1419 159.951 36.0995 160.473 36.9973 161.213C37.895 161.954 38.6522 162.952 39.2687 164.209ZM36.9524 165.345C36.4239 164.268 35.7413 163.467 34.9045 162.941C34.0409 162.407 33.1083 162.141 32.1065 162.142C31.0959 162.125 30.0878 162.364 29.0823 162.857C28.0588 163.359 27.2443 164.015 26.6388 164.824C26.0334 165.633 25.6866 166.539 25.5985 167.54C25.5016 168.523 25.7129 169.544 26.2326 170.604C26.7435 171.645 27.4217 172.437 28.2673 172.98C29.1129 173.524 30.041 173.803 31.0516 173.82C32.0622 173.837 33.0793 173.594 34.1027 173.092C35.1083 172.599 35.9182 171.956 36.5324 171.165C37.1379 170.356 37.498 169.455 37.6129 168.463C37.701 167.462 37.4809 166.423 36.9524 165.345Z" fill="white"></path><path d="M35.8709 135.031L13.8791 136.147L13.7637 133.87L20.6848 133.519L20.6522 134.061C18.9293 134.048 17.5129 133.76 16.4029 133.195C15.2719 132.612 14.4209 131.824 13.8499 130.831C13.2789 129.839 12.963 128.744 12.9022 127.545C12.8435 126.387 13.01 125.327 13.4018 124.366C13.7926 123.385 14.3503 122.535 15.0749 121.818C15.7995 121.1 16.652 120.536 17.6325 120.126C18.613 119.716 19.6625 119.482 20.7811 119.426L21.3204 119.398C22.439 119.342 23.5072 119.478 24.5252 119.807C25.5431 120.135 26.4494 120.63 27.2438 121.291C28.0373 121.931 28.6781 122.72 29.1661 123.656C29.6532 124.573 29.9256 125.6 29.9833 126.739C30.0411 127.878 29.8466 128.979 29.3999 130.043C28.9532 131.107 28.1878 132.007 27.1037 132.743C26.0196 133.478 24.5712 133.942 22.7586 134.134L25.0887 132.695L35.725 132.155L35.8709 135.031ZM27.4893 127.316C27.4346 126.237 27.1373 125.311 26.5975 124.538C26.0376 123.765 25.2971 123.182 24.376 122.788C23.4349 122.395 22.3751 122.229 21.1966 122.288C19.9981 122.349 18.9606 122.622 18.0841 123.107C17.2075 123.592 16.5398 124.247 16.081 125.071C15.6022 125.896 15.3901 126.848 15.4448 127.927C15.4934 128.886 15.7582 129.763 16.2392 130.56C16.7002 131.358 17.3528 131.985 18.1971 132.443C19.0204 132.882 20.0013 133.073 21.1398 133.015L22.5181 132.945C23.6166 132.889 24.5428 132.592 25.2965 132.053C26.0501 131.514 26.6159 130.825 26.9939 129.985C27.3718 129.144 27.5369 128.255 27.4893 127.316Z" fill="white"></path><path d="M31.0619 105.489L26.3173 104.763L26.2446 105.237L20.7586 104.397C19.6713 104.23 18.8069 104.391 18.1655 104.88C17.5272 105.348 17.1248 106.126 16.9582 107.214C16.8643 107.826 16.7773 108.461 16.6971 109.116C16.6169 109.771 16.5413 110.397 16.4702 110.993C16.3991 111.589 16.35 112.108 16.3229 112.549L13.832 112.167C13.8591 111.726 13.8991 111.267 13.952 110.79C13.9882 110.289 14.0456 109.782 14.1244 109.268C14.1834 108.751 14.2492 108.255 14.3219 107.781C14.5702 106.16 14.9708 104.866 15.5237 103.898C16.0568 102.928 16.7961 102.262 17.7417 101.901C18.6873 101.54 19.9014 101.473 21.3841 101.7L31.4072 103.236L31.0619 105.489ZM30.6821 110.742C30.5004 111.929 30.1452 112.926 29.6165 113.736C29.0712 114.522 28.3766 115.094 27.5329 115.45C26.6923 115.786 25.7283 115.871 24.641 115.705C23.5141 115.532 22.6129 115.141 21.9374 114.532C21.2649 113.903 20.815 113.075 20.5878 112.049C20.3408 111.02 20.3218 109.823 20.5308 108.459L21.1895 104.159L23.3246 104.486L22.6477 108.905C22.4721 110.051 22.6141 110.973 23.0737 111.671C23.5334 112.369 24.1981 112.784 25.068 112.917C25.9378 113.051 26.6866 112.852 27.3142 112.321C27.9419 111.79 28.3436 110.951 28.5192 109.804C28.6222 109.132 28.602 108.471 28.4587 107.822C28.2955 107.17 27.9576 106.602 27.4449 106.119C26.9154 105.613 26.1397 105.261 25.1177 105.064L26.3627 104.466C27.4744 104.737 28.3809 105.16 29.0823 105.732C29.7669 106.282 30.2463 106.983 30.5206 107.834C30.7978 108.666 30.8517 109.635 30.6821 110.742Z" fill="white"></path><path d="M34.2459 93.5673L19.2231 88.0035L20.015 85.8654L26.2042 88.1576L26.1625 88.2701C23.9681 87.4575 22.5417 86.3853 21.8832 85.0537C21.2129 83.6964 21.2354 82.0519 21.9509 80.1201L22.1384 79.6137L24.5578 80.5098L24.2036 81.4663C23.6479 82.9667 23.6239 84.2695 24.1317 85.3746C24.6207 86.4728 25.6154 87.2998 27.1158 87.8554L35.2462 90.8666L34.2459 93.5673Z" fill="white"></path><path d="M45.6483 70.5355L41.5749 67.9965L41.321 68.4038L36.611 65.4681C35.6775 64.8862 34.8197 64.6933 34.0377 64.8893C33.2662 65.0683 32.5895 65.6245 32.0077 66.558C31.6797 67.0842 31.3497 67.6326 31.0175 68.2033C30.6854 68.774 30.3691 69.3192 30.0687 69.839C29.7683 70.3588 29.5187 70.8159 29.3199 71.2105L27.1813 69.8775C27.3801 69.4829 27.598 69.0767 27.8349 68.6588C28.0654 68.2133 28.3182 67.7699 28.5933 67.3286C28.8514 66.8767 29.1074 66.4471 29.3613 66.0398C30.2288 64.648 31.1073 63.6166 31.9969 62.9456C32.8695 62.264 33.8115 61.9438 34.8227 61.985C35.834 62.0261 36.9762 62.4434 38.2491 63.2369L46.8544 68.6006L45.6483 70.5355ZM43.2277 75.213C42.593 76.2314 41.8731 77.0082 41.0682 77.5434C40.2568 78.0511 39.3932 78.3023 38.4774 78.2971C37.5721 78.2748 36.6527 77.9728 35.7192 77.3909C34.7518 76.7879 34.0778 76.0733 33.6973 75.2469C33.3274 74.4036 33.2404 73.4656 33.4363 72.4329C33.6152 71.3897 34.0697 70.2825 34.7996 69.1114L37.1006 65.4198L38.9337 66.5623L36.5692 70.3558C35.9556 71.3402 35.7225 72.2436 35.8698 73.066C36.017 73.8883 36.4641 74.5323 37.2109 74.9978C37.9577 75.4633 38.7242 75.5757 39.5104 75.3352C40.2967 75.0947 40.9966 74.4822 41.6102 73.4978C41.9699 72.9207 42.2119 72.3056 42.3362 71.6525C42.4435 70.9888 42.3568 70.3339 42.0762 69.6876C41.7892 69.0138 41.2149 68.3849 40.3535 67.8008L41.7335 67.7419C42.6481 68.4297 43.3147 69.1752 43.7333 69.9781C44.1455 70.7536 44.3098 71.5865 44.2261 72.477C44.1529 73.3505 43.8202 74.2625 43.2277 75.213Z" fill="white"></path><path d="M70.3582 46.4765C68.6346 47.6762 67.0397 48.238 65.5735 48.162C64.1237 48.0746 62.9368 47.4021 62.0128 46.1445L64.2288 44.6021C64.6158 45.0881 65.2073 45.3953 66.0033 45.5236C66.8042 45.624 67.7874 45.2686 68.9529 44.4574C70.0035 43.7262 70.665 42.9612 70.9375 42.1623C71.1986 41.3471 71.1177 40.6358 70.695 40.0284C70.318 39.4867 69.8214 39.2109 69.2054 39.2011C68.5779 39.1748 67.7703 39.4324 66.7825 39.9737L65.2515 40.82C63.9126 41.557 62.6377 41.896 61.4271 41.8371C60.205 41.7617 59.2055 41.1659 58.4285 40.0497C57.8458 39.2125 57.5622 38.3499 57.5777 37.4619C57.5818 36.5574 57.8528 35.6865 58.3908 34.849C58.9174 33.9952 59.6732 33.2255 60.6581 32.54C62.1355 31.5117 63.5623 31.0059 64.9386 31.0227C66.3148 31.0395 67.4707 31.6849 68.4061 32.9588L66.1901 34.5013C65.808 33.9874 65.2533 33.7156 64.5259 33.6858C63.8035 33.6281 62.9827 33.9192 62.0634 34.559C61.1442 35.1989 60.5779 35.8732 60.3646 36.5821C60.1514 37.291 60.2447 37.9327 60.6446 38.5072C60.9874 38.9997 61.4257 39.2794 61.9597 39.3464C62.5101 39.4019 63.1996 39.2022 64.0282 38.7473L65.5592 37.901C67.0737 37.0662 68.4806 36.6718 69.7798 36.7179C71.0675 36.7475 72.1113 37.3369 72.9111 38.486C73.4823 39.3067 73.7527 40.2029 73.7223 41.1744C73.6968 42.1181 73.3994 43.0562 72.83 43.9886C72.2491 44.9046 71.4252 45.7339 70.3582 46.4765Z" fill="white"></path><path d="M87.3564 37.2667C86.0698 37.8188 84.8632 38.0754 83.7366 38.0365C82.61 37.9977 81.5988 37.7461 80.7031 37.2817C79.7995 36.7989 79.0074 36.1703 78.3268 35.3959C77.6647 34.6136 77.1325 33.7538 76.7302 32.8165L76.5173 32.3203C76.1072 31.3645 75.8467 30.3772 75.7359 29.3584C75.6435 28.3316 75.7376 27.3336 76.0181 26.3644C76.2908 25.3769 76.7867 24.4785 77.5059 23.6693C78.2355 22.8339 79.2161 22.1519 80.4475 21.6235C82.0465 20.9373 83.5104 20.7226 84.8394 20.9793C86.1788 21.2098 87.3293 21.7607 88.2909 22.6321C89.2708 23.4957 90.025 24.5431 90.5535 25.7745L91.0622 26.96L77.9946 32.5677L77.1428 30.5828L88.2806 25.8032L88.1355 27.1386C87.6859 26.091 87.134 25.2614 86.4798 24.6499C85.8177 24.0199 85.0652 23.6355 84.2221 23.4967C83.3791 23.358 82.4521 23.5055 81.4412 23.9393C80.3936 24.3888 79.6232 25.0024 79.1298 25.78C78.6549 26.5496 78.4202 27.4229 78.4259 28.3999C78.45 29.3689 78.6948 30.3956 79.1601 31.48C79.6097 32.5276 80.1813 33.4031 80.8749 34.1066C81.579 34.7838 82.3959 35.2167 83.3257 35.4054C84.2475 35.5756 85.2598 35.4241 86.3626 34.9509C87.5205 34.454 88.3474 33.7945 88.8433 32.9723C89.3577 32.1422 89.5424 31.3555 89.3976 30.6124L91.8788 29.5477C92.1105 30.6453 92.0808 31.6918 91.7897 32.6872C91.4987 33.6827 90.9765 34.5706 90.2232 35.3509C89.4699 36.1312 88.5143 36.7698 87.3564 37.2667Z" fill="white"></path><path d="M97.0147 34.7924L93.7899 19.1003L96.0232 18.6414L97.4061 25.3708L97.0535 25.4432C96.7395 23.9152 96.6696 22.5819 96.8441 21.4435C97.034 20.2815 97.4722 19.3339 98.1587 18.6007C98.8452 17.8675 99.8055 17.3741 101.04 17.1204L101.157 17.0963C102.391 16.8426 103.469 16.9174 104.389 17.3204C105.328 17.7195 106.104 18.4175 106.718 19.4144C107.327 20.3918 107.789 21.6445 108.103 23.1726L107.28 23.3417C106.966 21.8136 106.906 20.4783 107.1 19.3359C107.29 18.1739 107.728 17.2263 108.414 16.4931C109.12 15.7559 110.091 15.2604 111.325 15.0068L111.442 14.9826C112.677 14.729 113.763 14.8017 114.703 15.2007C115.643 15.5998 116.419 16.2978 117.032 17.2947C117.661 18.2681 118.132 19.5188 118.446 21.0469L120.288 30.0096L117.467 30.5893L115.499 21.0095C115.237 19.7361 114.722 18.821 113.954 18.2642C113.182 17.6877 112.238 17.5143 111.122 17.7437C109.966 17.9813 109.112 18.5447 108.559 19.4341C108.003 20.3039 107.86 21.3951 108.13 22.7076L110.062 32.1111L107.241 32.6909L105.272 23.1111C105.011 21.8377 104.496 20.9226 103.728 20.3657C102.956 19.7893 102.012 19.6158 100.895 19.8453C99.7394 20.0828 98.8854 20.6463 98.3331 21.5357C97.7768 22.4054 97.6335 23.4966 97.9032 24.8092L99.8357 34.2127L97.0147 34.7924Z" fill="white"></path><path d="M123.918 35L123.918 12.98L126.198 12.98V19.91L125.658 19.85C125.758 18.13 126.118 16.73 126.738 15.65C127.378 14.55 128.208 13.74 129.228 13.22C130.248 12.7 131.358 12.44 132.558 12.44C133.718 12.44 134.768 12.66 135.708 13.1C136.668 13.54 137.488 14.14 138.168 14.9C138.848 15.66 139.368 16.54 139.728 17.54C140.088 18.54 140.268 19.6 140.268 20.72V21.26C140.268 22.38 140.078 23.44 139.698 24.44C139.318 25.44 138.778 26.32 138.078 27.08C137.398 27.84 136.578 28.44 135.618 28.88C134.678 29.32 133.638 29.54 132.498 29.54C131.358 29.54 130.268 29.29 129.228 28.79C128.188 28.29 127.328 27.48 126.648 26.36C125.968 25.24 125.578 23.77 125.478 21.95L126.798 24.35L126.798 35H123.918ZM132.048 27.02C133.128 27.02 134.068 26.77 134.868 26.27C135.668 25.75 136.288 25.04 136.728 24.14C137.168 23.22 137.388 22.17 137.388 20.99C137.388 19.79 137.168 18.74 136.728 17.84C136.288 16.94 135.668 16.24 134.868 15.74C134.068 15.22 133.128 14.96 132.048 14.96C131.088 14.96 130.198 15.18 129.378 15.62C128.558 16.04 127.898 16.66 127.398 17.48C126.918 18.28 126.678 19.25 126.678 20.39V21.77C126.678 22.87 126.928 23.81 127.428 24.59C127.928 25.37 128.588 25.97 129.408 26.39C130.228 26.81 131.108 27.02 132.048 27.02Z" fill="white"></path><path d="M144.856 33.0319L148.08 17.3399L150.314 17.7988L148.985 24.2637L148.868 24.2396C149.339 21.9475 150.183 20.3751 151.399 19.5226C152.639 18.6544 154.268 18.4277 156.286 18.8424L156.815 18.9511L156.296 21.4783L155.296 21.2729C153.729 20.9509 152.438 21.1245 151.422 21.7937C150.411 22.4434 149.744 23.5519 149.422 25.1192L147.677 33.6117L144.856 33.0319Z" fill="white"></path><path d="M164.42 41.0444C163.134 40.4923 162.117 39.7946 161.369 38.9512C160.621 38.1079 160.106 37.2016 159.826 36.2325C159.553 35.2449 159.463 34.2377 159.555 33.211C159.666 32.1921 159.923 31.214 160.325 30.2766L160.538 29.7804C160.948 28.8247 161.484 27.9557 162.146 27.1734C162.827 26.399 163.615 25.7796 164.511 25.3152C165.414 24.8325 166.407 24.5729 167.489 24.5367C168.597 24.4899 169.767 24.7308 170.999 25.2592C172.598 25.9454 173.762 26.8585 174.491 27.9986C175.247 29.1282 175.64 30.3417 175.671 31.639C175.721 32.9442 175.481 34.2125 174.953 35.4439L174.444 36.6294L161.376 31.0216L162.228 29.0367L173.366 33.8163L172.298 34.6312C172.748 33.5836 172.969 32.612 172.961 31.7165C172.962 30.8026 172.722 29.9923 172.241 29.2857C171.761 28.579 171.016 28.0088 170.005 27.575C168.957 27.1254 167.982 26.9897 167.078 27.1679C166.193 27.3539 165.398 27.7855 164.694 28.4627C164.009 29.1478 163.433 30.0326 162.968 31.1169C162.518 32.1645 162.277 33.1821 162.245 34.1695C162.24 35.1464 162.489 36.0368 162.993 36.8406C163.504 37.626 164.312 38.2554 165.414 38.7286C166.572 39.2255 167.62 39.3704 168.558 39.1634C169.514 38.9643 170.211 38.5563 170.65 37.9393L173.131 39.0041C172.495 39.9282 171.716 40.6277 170.794 41.1026C169.872 41.5775 168.869 41.8107 167.784 41.8023C166.7 41.7939 165.578 41.5413 164.42 41.0444Z" fill="white"></path><path d="M192.84 49.797L194.623 48.1021L202.311 56.1908L200.528 57.8856L192.84 49.797Z" fill="white"></path><path d="M211.038 91.0324C210.496 89.5696 210.276 88.1688 210.377 86.8303C210.486 85.5105 210.887 84.3487 211.582 83.345C212.283 82.36 213.253 81.6383 214.491 81.1799C215.316 80.8742 216.116 80.7593 216.89 80.835C217.684 80.9038 218.428 81.1292 219.124 81.5113C219.82 81.8933 220.432 82.3921 220.958 83.0075L221.24 82.9033C221.275 82.2504 221.412 81.613 221.651 80.9913C221.897 80.3884 222.249 79.8421 222.708 79.3524C223.173 78.8814 223.762 78.514 224.475 78.25C225.656 77.8124 226.774 77.7503 227.829 78.0635C228.89 78.3956 229.828 78.9975 230.641 79.8693C231.48 80.7528 232.129 81.8135 232.587 83.0514C233.053 84.308 233.251 85.5354 233.183 86.7336C233.141 87.9436 232.822 89.0109 232.226 89.9355C231.63 90.86 230.741 91.5411 229.559 91.9787C228.847 92.2427 228.16 92.3475 227.5 92.2934C226.841 92.2392 226.217 92.054 225.631 91.738C225.052 91.4407 224.533 91.0465 224.074 90.5554L223.792 90.6596C223.801 91.4883 223.656 92.2777 223.358 93.0279C223.078 93.7711 222.66 94.4272 222.103 94.9961C221.565 95.5581 220.892 95.9884 220.086 96.2871C218.848 96.7455 217.639 96.8202 216.458 96.511C215.284 96.2207 214.223 95.6007 213.274 94.6511C212.332 93.7203 211.587 92.5141 211.038 91.0324ZM213.345 90.1781C213.727 91.2096 214.213 92.0321 214.802 92.6454C215.411 93.2518 216.088 93.6408 216.834 93.8124C217.599 93.977 218.394 93.9065 219.219 93.6009C220.044 93.2953 220.684 92.8344 221.138 92.2183C221.6 91.6209 221.854 90.8974 221.902 90.0479C221.969 89.1914 221.808 88.2381 221.419 87.1878C221.037 86.1563 220.541 85.3373 219.933 84.7309C219.343 84.1175 218.675 83.725 217.929 83.5534C217.19 83.4006 216.408 83.477 215.583 83.7827C214.758 84.0883 214.105 84.5433 213.625 85.1476C213.171 85.7637 212.91 86.5 212.843 87.3565C212.796 88.206 212.963 89.1466 213.345 90.1781ZM223.557 86.3959C224.029 87.6713 224.68 88.5927 225.508 89.1602C226.356 89.7208 227.351 89.7892 228.496 89.3655C229.658 88.9349 230.356 88.2284 230.59 87.2462C230.849 86.2758 230.746 85.1623 230.28 83.9057C229.815 82.6492 229.165 81.7277 228.329 81.1415C227.5 80.5739 226.514 80.502 225.37 80.9257C224.226 81.3495 223.515 82.05 223.237 83.0273C222.985 84.0165 223.091 85.1393 223.557 86.3959Z" fill="white"></path><path d="M215.877 109.976C215.623 108.316 215.744 106.86 216.241 105.611C216.757 104.358 217.523 103.351 218.539 102.588C219.556 101.825 220.686 101.349 221.932 101.158L222.359 103.945C221.45 104.085 220.669 104.406 220.018 104.911C219.37 105.435 218.894 106.095 218.591 106.89C218.288 107.685 218.214 108.586 218.368 109.595C218.52 110.583 218.849 111.413 219.357 112.084C219.887 112.771 220.54 113.268 221.315 113.574C222.11 113.877 222.962 113.959 223.872 113.82C224.781 113.681 225.57 113.347 226.238 112.82C226.908 112.313 227.404 111.65 227.724 110.832C228.047 110.034 228.131 109.131 227.976 108.123C227.864 107.391 227.622 106.67 227.25 105.958C226.898 105.243 226.459 104.693 225.935 104.308L225.535 101.698L237.209 101.033L238.949 112.39L236.517 112.763L235.032 103.066L236.12 103.628L227.6 104.083L227.749 103.271C228.41 103.757 228.971 104.379 229.431 105.138C229.894 105.917 230.206 106.83 230.367 107.878C230.621 109.539 230.489 110.985 229.969 112.218C229.47 113.448 228.72 114.433 227.721 115.173C226.744 115.929 225.673 116.397 224.506 116.576L224.091 116.639C222.925 116.818 221.752 116.694 220.574 116.268C219.416 115.838 218.401 115.093 217.531 114.033C216.683 112.989 216.132 111.637 215.877 109.976Z" fill="white"></path><path d="M217.543 123.055L238.995 132.434L238.88 134.711L217.427 125.332L217.543 123.055ZM227.752 121.951C227.809 120.812 228.116 119.897 228.672 119.204C229.227 118.531 229.942 118.047 230.818 117.751C231.693 117.475 232.63 117.362 233.629 117.413L234.408 117.452C235.487 117.507 236.437 117.725 237.259 118.107C238.1 118.491 238.743 119.054 239.185 119.797C239.648 120.542 239.852 121.463 239.796 122.562C239.739 123.68 239.444 124.576 238.909 125.25C238.393 125.945 237.697 126.44 236.821 126.736C235.965 127.033 234.997 127.155 233.919 127.1L233.14 127.06C232.141 127.01 231.221 126.793 230.379 126.41C229.537 126.047 228.873 125.502 228.389 124.777C227.906 124.051 227.693 123.109 227.752 121.951ZM229.729 122.051C229.683 122.97 229.978 123.666 230.615 124.139C231.27 124.633 232.267 124.913 233.606 124.981C235.024 125.053 236.064 124.876 236.727 124.449C237.409 124.023 237.773 123.36 237.819 122.461C237.864 121.563 237.569 120.867 236.933 120.374C236.317 119.882 235.31 119.601 233.912 119.53C232.574 119.462 231.554 119.63 230.853 120.035C230.15 120.46 229.776 121.132 229.729 122.051ZM216.632 135.085C216.69 133.946 216.997 133.03 217.553 132.338C218.107 131.665 218.823 131.18 219.699 130.884C220.574 130.608 221.511 130.496 222.51 130.546L223.289 130.586C224.367 130.641 225.317 130.859 226.139 131.241C226.981 131.624 227.623 132.187 228.066 132.931C228.529 133.675 228.732 134.597 228.677 135.695C228.62 136.814 228.324 137.71 227.789 138.384C227.274 139.079 226.578 139.574 225.701 139.87C224.845 140.167 223.878 140.288 222.799 140.234L222.02 140.194C221.022 140.143 220.101 139.926 219.26 139.543C218.417 139.18 217.754 138.636 217.27 137.91C216.786 137.185 216.573 136.243 216.632 135.085ZM218.61 135.185C218.563 136.104 218.858 136.799 219.495 137.272C220.151 137.766 221.148 138.047 222.486 138.115C223.904 138.187 224.945 138.009 225.607 137.582C226.29 137.156 226.654 136.494 226.699 135.595C226.745 134.696 226.45 134 225.814 133.508C225.198 133.016 224.191 132.734 222.793 132.663C221.454 132.596 220.435 132.764 219.733 133.169C219.031 133.594 218.656 134.266 218.61 135.185Z" fill="white"></path><path d="M207.086 165.113C207.703 163.856 208.46 162.857 209.358 162.117C210.256 161.377 211.218 160.846 212.244 160.525C213.279 160.231 214.32 160.129 215.367 160.22C216.406 160.328 217.383 160.607 218.299 161.056L218.784 161.294C219.699 161.743 220.513 162.354 221.226 163.127C221.956 163.908 222.509 164.803 222.883 165.811C223.276 166.828 223.445 167.913 223.391 169.067C223.355 170.23 223.038 171.423 222.439 172.644C221.84 173.865 221.091 174.845 220.194 175.585C219.314 176.335 218.352 176.865 217.308 177.177C216.282 177.498 215.236 177.609 214.171 177.51C213.124 177.419 212.142 177.149 211.226 176.7L210.742 176.462C209.826 176.013 209.012 175.402 208.299 174.629C207.578 173.875 207.021 172.989 206.629 171.972C206.245 170.982 206.072 169.906 206.108 168.743C206.144 167.58 206.47 166.37 207.086 165.113ZM209.403 166.249C208.874 167.326 208.658 168.357 208.755 169.34C208.861 170.35 209.222 171.25 209.836 172.042C210.441 172.851 211.247 173.502 212.252 173.996C213.276 174.498 214.293 174.74 215.303 174.724C216.314 174.707 217.242 174.427 218.088 173.884C218.925 173.359 219.603 172.567 220.122 171.507C220.633 170.466 220.845 169.445 220.757 168.443C220.668 167.442 220.322 166.537 219.716 165.728C219.111 164.918 218.296 164.263 217.273 163.761C216.267 163.267 215.264 163.02 214.262 163.019C213.251 163.035 212.318 163.302 211.464 163.818C210.618 164.361 209.931 165.172 209.403 166.249Z" fill="white"></path><path d="M199.265 179.06L212.573 189.362C213.981 190.451 214.729 191.625 214.818 192.882C214.907 194.14 214.394 195.488 213.28 196.927L212.068 198.493L210.17 197.024L211.676 195.079C212.129 194.493 212.312 193.914 212.225 193.341C212.153 192.78 211.833 192.279 211.264 191.838L197.575 181.242L199.265 179.06ZM211.441 185.678L213.149 187L206.998 194.947L205.29 193.625L211.441 185.678Z" fill="white"></path><path d="M186.528 193.194L197.49 205.964C198.65 207.315 199.147 208.615 198.98 209.864C198.814 211.114 198.041 212.332 196.66 213.517L195.158 214.807L193.594 212.986L195.461 211.383C196.022 210.901 196.318 210.371 196.348 209.792C196.391 209.228 196.178 208.672 195.709 208.126L184.434 194.992L186.528 193.194ZM197.123 202.128L198.53 203.767L190.904 210.313L189.498 208.674L197.123 202.128Z" fill="white"></path><path d="M158.99 218.305L159.727 220.652L149.079 223.993L148.342 221.645L158.99 218.305Z" fill="white"></path></svg>