<svg xmlns="http://www.w3.org/2000/svg" width="1039" height="310" viewBox="0 0 1039 310" fill="none"><path d="M138.523 58.0003C130.95 80.7167 123.961 103.724 117.262 126.732C107.069 162.263 108.234 168.087 118.136 171.291C121.048 172.165 122.505 172.456 123.087 175.368C125.417 194.007 85.5177 205.948 73.8682 183.523C67.4611 171.582 71.5384 154.691 74.742 142.167C77.6543 131.392 81.7316 119.451 86.1001 107.51C91.9249 89.1625 97.4583 72.5621 100.662 62.0776C106.487 43.4385 141.726 48.6807 138.523 58.0003ZM125.999 21.0134C257.347 40.5262 192.11 246.139 77.3631 234.78C26.9793 229.538 9.79641 201.871 13.5825 181.484C15.9124 168.67 28.7267 153.234 46.2009 157.894C57.8503 161.098 55.2292 171.582 52.608 178.572C49.6957 187.018 51.7343 195.172 57.5591 201.288C62.5101 206.822 70.6647 210.317 80.5667 211.481C149.881 219.054 203.468 55.3792 128.621 40.8174C96.0022 34.4102 55.5204 40.8174 50.5694 76.9306C49.1132 85.9589 52.608 93.2398 64.5487 92.9486C81.4404 92.0749 77.9455 112.461 62.2188 117.995C25.5231 130.518 0.476868 93.531 22.902 58.2915C44.7447 24.5082 86.9739 15.4799 125.999 21.0134ZM402.874 147.701C392.389 166.631 368.216 197.211 344.918 206.822C321.619 216.724 289.292 208.569 290.165 181.775C289.874 177.407 286.67 177.698 284.923 180.319C275.895 195.755 263.954 212.064 244.441 209.443C181.243 200.415 214.153 83.9203 284.923 89.1625C288.709 89.4537 296.864 91.4924 300.359 92.9486C303.562 93.8223 305.31 93.531 308.222 90.3274C321.91 77.8043 351.034 94.1135 343.461 104.307C335.889 114.209 315.794 174.786 331.812 177.989C346.665 181.193 369.381 151.487 382.487 134.013C387.147 127.606 393.263 130.518 397.922 134.304C402.582 137.799 406.368 141.294 402.874 147.701ZM254.343 177.698C268.323 181.193 292.204 129.644 295.116 122.363C297.446 116.83 293.66 113.044 286.088 112.17C262.498 109.84 238.325 173.33 254.343 177.698ZM548.353 131.683C553.304 134.013 558.255 138.381 555.633 144.497C539.907 180.028 506.415 212.064 477 210.025C466.515 209.152 456.613 204.492 450.497 196.337C433.897 173.621 451.954 146.245 462.438 126.732C466.224 119.16 459.817 108.967 446.42 120.616C434.479 131.1 415.84 152.943 407.103 173.33C401.861 185.561 398.075 197.502 396.036 206.239C393.415 217.889 358.467 208.86 363.127 191.095C367.786 174.203 372.737 155.273 378.271 135.469C380.601 126.732 382.931 118.286 385.261 109.549H385.552C386.134 107.219 387.008 105.18 387.299 104.016C396.619 81.2991 429.237 91.7836 425.16 101.977C423.704 106.054 421.665 111.296 419.626 116.83C419.335 117.995 419.044 119.16 418.753 120.325C417.879 124.111 420.791 124.402 423.121 121.781C430.111 113.044 451.662 77.8043 483.698 92.6573C535.538 116.83 470.593 169.252 489.523 176.242C500.59 180.319 522.433 152.943 533.791 135.76C538.159 129.062 543.693 129.644 548.353 131.683ZM657.409 132.848C661.195 128.188 669.35 130.227 673.718 134.304C677.213 137.508 679.252 141.585 676.339 146.827C655.953 182.067 609.646 213.811 568.291 209.152C497.229 200.706 523.732 86.5414 589.842 90.0362C614.015 91.2011 622.461 110.423 618.675 127.314C616.636 136.925 607.316 141.876 600.618 139.546C594.793 137.508 595.376 133.43 596.832 129.062C598.871 121.781 597.123 113.626 589.551 113.626C569.165 114.209 551.982 174.203 577.902 178.863C607.316 184.105 642.847 151.196 657.409 132.848ZM774.781 132.557C778.567 127.897 786.722 129.935 790.799 134.013C794.585 137.508 796.624 141.294 793.42 146.827C773.325 181.775 731.096 214.103 689.741 209.443C618.679 200.997 645.764 85.6677 711.875 89.1625C767.209 92.0749 740.416 167.214 695.274 153.817C689.449 152.069 685.372 149.74 684.498 159.059C683.333 170.126 691.197 176.533 700.808 177.989C729.931 183.523 759.928 150.904 774.781 132.557ZM700.516 119.742C694.983 125.276 695.274 131.683 702.846 132.557C708.088 132.848 712.166 131.974 715.078 129.644C727.31 120.616 713.331 105.763 700.516 119.742Z" fill="url(#paint0_linear_10_25)"></path><path d="M829.848 35.211L824.087 53.2713C822.998 56.8522 824.243 59.1875 829.225 59.0319H843.705C856.471 58.4091 847.441 75.6909 843.082 76.0023H823.465C820.662 75.8466 817.237 74.6011 815.057 81.6072L807.74 104.338C806.494 107.763 789.835 106.051 794.039 93.9069L797.62 82.0743C799.021 76.6251 795.751 76.3137 793.416 76.0023H775.356C770.996 76.3137 771.619 59.4989 783.14 59.0319H799.021C802.602 58.7205 805.093 58.2534 806.183 54.2054L811.321 37.702C815.213 26.8036 831.405 31.163 829.848 35.211ZM953.256 22.1329L920.405 115.237C917.914 122.087 893.47 117.728 899.698 103.871C901.099 100.602 902.656 97.3321 904.057 94.2183C905.614 90.1703 904.369 87.3678 897.518 87.6792C890.668 87.6792 883.506 87.8349 872.452 87.8349C867.314 87.8349 864.044 78.3377 867.47 74.6011C881.015 61.0559 892.225 38.3248 888.955 20.7316C888.488 15.2824 892.692 14.8153 895.494 15.4381C931.303 23.067 907.327 60.4331 888.955 72.5771C886.931 73.9783 886.153 75.5352 889.889 75.5352C895.494 75.5352 901.099 75.5352 906.86 75.5352C909.351 75.5352 913.087 73.8226 914.8 70.2417C922.585 53.4269 929.591 36.4565 937.064 19.3304C940.645 11.0787 954.657 16.3722 953.256 22.1329ZM965.563 118.662C916.364 116.638 958.868 0.803047 1002.46 15.2824C1038.89 27.4264 1011.18 120.53 965.563 118.662ZM972.413 98.5776C999.504 104.338 1016.01 30.0731 998.569 24.3125C978.018 17.6178 947.347 93.2841 972.413 98.5776Z" fill="url(#paint1_linear_10_25)"></path><defs><linearGradient id="paint0_linear_10_25" x1="13" y1="162.363" x2="824.121" y2="162.363" gradientUnits="userSpaceOnUse"><stop stop-color="#4F01CA"></stop><stop offset="1" stop-color="#DB0FDB"></stop></linearGradient><linearGradient id="paint1_linear_10_25" x1="759.787" y1="93.8628" x2="1021.79" y2="93.8628" gradientUnits="userSpaceOnUse"><stop stop-color="#4F01CA"></stop><stop offset="1" stop-color="#DB0FDB"></stop></linearGradient></defs></svg>