<svg xmlns="http://www.w3.org/2000/svg" width="270" height="270" viewBox="0 0 270 270" fill="none"><path d="M214.311 55.2381C203.995 44.8218 191.71 36.5627 178.17 30.9422C164.631 25.3216 150.108 22.452 135.448 22.5006C74.023 22.5006 23.9605 72.5631 23.9605 133.988C23.9605 153.676 29.1355 172.801 38.8105 189.676L23.0605 247.501L82.123 231.976C98.4355 240.863 116.773 245.588 135.448 245.588C196.873 245.588 246.936 195.526 246.936 134.101C246.936 104.288 235.348 76.2756 214.311 55.2381ZM135.448 226.688C118.798 226.688 102.486 222.188 88.198 213.751L84.823 211.726L49.723 220.951L59.0605 186.751L56.8105 183.263C47.558 168.493 42.646 151.417 42.6355 133.988C42.6355 82.9131 84.2605 41.2881 135.336 41.2881C160.086 41.2881 183.373 50.9631 200.811 68.5131C209.446 77.1066 216.29 87.3292 220.944 98.5881C225.598 109.847 227.97 121.918 227.923 134.101C228.148 185.176 186.523 226.688 135.448 226.688ZM186.298 157.388C183.486 156.038 169.761 149.288 167.286 148.276C164.698 147.376 162.898 146.926 160.986 149.626C159.073 152.438 153.786 158.738 152.211 160.538C150.636 162.451 148.948 162.676 146.136 161.213C143.323 159.863 134.323 156.826 123.748 147.376C115.423 139.951 109.911 130.838 108.223 128.026C106.648 125.213 107.998 123.751 109.461 122.288C110.698 121.051 112.273 119.026 113.623 117.451C114.973 115.876 115.536 114.638 116.436 112.838C117.336 110.926 116.886 109.351 116.211 108.001C115.536 106.651 109.911 92.9256 107.661 87.3006C105.411 81.9006 103.048 82.5756 101.361 82.4631H95.9605C94.048 82.4631 91.123 83.1381 88.5355 85.9506C86.0605 88.7631 78.8605 95.5131 78.8605 109.238C78.8605 122.963 88.873 136.238 90.223 138.038C91.573 139.951 109.911 168.076 137.811 180.113C144.448 183.038 149.623 184.726 153.673 185.963C160.311 188.101 166.386 187.763 171.223 187.088C176.623 186.301 187.761 180.338 190.011 173.813C192.373 167.288 192.373 161.776 191.586 160.538C190.798 159.301 189.111 158.738 186.298 157.388Z" fill="url(#paint0_linear_46_233)"></path><defs><linearGradient id="paint0_linear_46_233" x1="134.998" y1="22.5" x2="134.998" y2="247.501" gradientUnits="userSpaceOnUse"><stop stop-color="#25EB7B"></stop><stop offset="1" stop-color="#158546" stop-opacity="0"></stop></linearGradient></defs></svg>